<?xml version="1.0" encoding="utf-8"?>
<!-- Generator: Adobe Illustrator 22.1.0, SVG Export Plug-In . SVG Version: 6.00 Build 0)  -->
<svg version="1.1" id="Layer_1" xmlns="http://www.w3.org/2000/svg" xmlns:xlink="http://www.w3.org/1999/xlink" x="0px" y="0px"
	 viewBox="0 0 67.7 67.5" style="enable-background:new 0 0 67.7 67.5;" xml:space="preserve">
<style type="text/css">
	.st0{fill:#43B02A;}
</style>
<g>
	<path class="st0" d="M12.5,51.7v-0.2c0-2,0.2-3.9,0.5-5.8v-0.2l-0.2-0.1c-1.8-0.7-3.5-1.6-5.2-2.5l-0.2-0.1L7.3,43
		c-1.1,2.2-2,4.6-2.8,7l-0.1,0.2l0.2,0.1c2.5,0.7,5,1.2,7.6,1.4L12.5,51.7z"/>
	<path class="st0" d="M17.7,17.5C17.7,17.4,17.7,17.4,17.7,17.5c-1.5,0-2.9,0.1-4.4,0.2c0.2,1.5,0.4,2.9,0.8,4.4
		C15.1,20.4,16.3,18.8,17.7,17.5z"/>
	<path class="st0" d="M12.5,53.5v-0.2h-0.2c-2.1-0.2-4.3-0.6-6.5-1.1l-0.6-0.1l0.3,0.5c1.9,2.9,4.3,5.5,7.1,7.8l0.4,0.4l0-0.7
		C12.7,57.8,12.5,55.6,12.5,53.5z"/>
	<path class="st0" d="M23,1.8c-2.6,0.9-5.1,2.1-7.4,3.6c1.7,0.3,3.4,0.7,5.1,1.2C21.4,5,22.1,3.4,23,1.8z"/>
	<path class="st0" d="M33.9,0c-1.3,0-2.6,0.1-3.8,0.2c1.8,1.2,3.5,2.6,5.1,4.1l1.3,1.2l-1.3,1.3C34.1,7.8,33,9,32,10.2v0.1
		c0,0-0.2,0.2-0.5,0.6c0.8-0.1,1.6-0.1,2.4-0.1c12.7,0,23,10.3,23,23s-10.3,23-23,23c-4.4,0-8.5-1.2-12-3.4
		c-1.7,0.2-3.5,0.3-5.2,0.3c-0.8,0-1.6,0-2.4-0.1c0.1,2.6,0.3,5.3,0.7,8.1c5.4,3.7,11.9,5.8,18.9,5.8c18.7,0,33.8-15.1,33.8-33.8
		C67.7,15.1,52.6,0,33.9,0z"/>
	<path class="st0" d="M29.4,8c0.7-0.8,1.4-1.6,2.1-2.3c-1.6-1.3-3.3-2.6-5-3.7c-1.1,1.8-2,3.7-2.8,5.6c1.5,0.6,3,1.2,4.5,1.9
		C28.8,8.7,29.3,8.1,29.4,8z"/>
	<path class="st0" d="M6.5,27.3l0.1,0.2l0.2-0.1c1.6-1.1,3.2-2.2,4.9-3.1l0.2-0.1V24c-0.5-1.9-0.9-3.9-1.1-5.9v-0.2h-0.2
		c-2.5,0.5-5,1.1-7.3,2L3.1,20l0.1,0.2C3.9,22.6,5.1,25,6.5,27.3z"/>
	<path class="st0" d="M6.1,30.5l-0.2,0.2c-1.8,1.5-3.5,3.1-5.1,4.9l-0.2,0.2L0.8,36c1.8,1.5,3.6,2.9,5.6,4.2l0.2,0.1l0.1-0.2
		c0.9-1.6,1.9-3.1,3-4.6l0.1-0.2l-0.1-0.1c-1.2-1.4-2.4-2.8-3.5-4.4L6.1,30.5z"/>
	<path class="st0" d="M19.4,51.8H20l-0.5-0.4c-1.8-1.5-3.4-3.2-4.6-5.2v-0.1l-0.4-0.2v0.3c-0.2,1.7-0.4,3.5-0.4,5.3v0.2h0.2
		c0.8,0,1.6,0.1,2.4,0.1C17.6,51.9,18.5,51.9,19.4,51.8z"/>
	<path class="st0" d="M18.3,14.5c0.4-1.7,0.8-3.3,1.4-4.9c-2.1-0.6-4.3-1.1-6.5-1.4c-0.2,2.2-0.2,4.4-0.1,6.6
		C14.8,14.6,16.5,14.5,18.3,14.5z"/>
	<path class="st0" d="M21.5,14.4c1.5-0.9,3.1-1.7,4.7-2.3c-1.2-0.6-2.4-1.1-3.6-1.5C22.2,11.8,21.8,13.1,21.5,14.4z"/>
	<path class="st0" d="M5.8,41.8l-0.2-0.1c-1.7-1.1-3.4-2.3-5-3.6l-0.5-0.4l0.1,0.6c0.4,3.2,1.3,6.4,2.7,9.4l0.2,0.5l0.2-0.5
		c0.7-1.9,1.5-3.8,2.4-5.6L5.8,41.8z"/>
	<path class="st0" d="M10.1,9.8c-2,2-3.8,4.3-5.2,6.7c1.7-0.5,3.5-0.9,5.3-1.3C10.1,13.4,10.1,11.6,10.1,9.8z"/>
	<path class="st0" d="M11.1,33.5v-0.6c0.1-2.1,0.4-4.1,1-6l0.2-0.6l-0.5,0.3c-1.3,0.8-2.6,1.6-3.9,2.5l-0.2,0.1L8,29.4
		c0.9,1.2,1.8,2.5,2.8,3.6L11.1,33.5z"/>
	<path class="st0" d="M11.4,37l-0.1-0.6L11,36.9c-0.9,1.3-1.8,2.7-2.6,4.1l-0.1,0.2l0.2,0.1c1.4,0.8,2.9,1.5,4.4,2.2l0.5,0.2
		l-0.2-0.5C12.3,41.2,11.7,39.1,11.4,37z"/>
	<path class="st0" d="M4.8,28.9L5,28.8l-0.1-0.2c-1.1-1.7-2-3.5-2.9-5.3l-0.2-0.5l-0.2,0.6c-1,3.1-1.5,6.2-1.6,9.5v0.6l0.4-0.4
		C1.7,31.5,3.2,30.1,4.8,28.9z"/>
</g>
</svg>
