<?xml version="1.0" encoding="UTF-8" standalone="no"?>
<svg
   width="200.14409"
   height="200.14784"
   viewBox="0 0 200.14409 200.14784"
   fill="none"
   version="1.1"
   id="svg20"
   sodipodi:docname="bleacher_nation.svg"
   xml:space="preserve"
   inkscape:version="1.4.4 (dcaf3e7d9e, 2026-05-05)"
   xmlns:inkscape="http://www.inkscape.org/namespaces/inkscape"
   xmlns:sodipodi="http://sodipodi.sourceforge.net/DTD/sodipodi-0.dtd"
   xmlns="http://www.w3.org/2000/svg"
   xmlns:svg="http://www.w3.org/2000/svg"><defs
     id="defs20" /><sodipodi:namedview
     id="namedview20"
     pagecolor="#ffffff"
     bordercolor="#000000"
     borderopacity="0.25"
     inkscape:showpageshadow="2"
     inkscape:pageopacity="0.0"
     inkscape:pagecheckerboard="0"
     inkscape:deskcolor="#d1d1d1"
     inkscape:zoom="2.476503"
     inkscape:cx="60.367381"
     inkscape:cy="65.818616"
     inkscape:window-width="2560"
     inkscape:window-height="1362"
     inkscape:window-x="0"
     inkscape:window-y="0"
     inkscape:window-maximized="1"
     inkscape:current-layer="svg20" /><g
     id="g1"><g
       id="g25"
       inkscape:label="BLEACHER"
       transform="matrix(4.1696597,0,0,4.1696597,-27.931713,-10.546105)"><path
         d="m 9.0787491,35.866599 c 0.3029,-0.1314 0.52758,-0.3661 0.52758,-0.7622 v -0.01 c 0,-0.2347 -0.08322,-0.4161 -0.21969,-0.5525 -0.19972,-0.1998 -0.50262,-0.3079 -0.93367,-0.3079 h -1.75417 v 3.4218 h 1.76416 c 0.8155,0 1.29482,-0.3562 1.29482,-0.9437 v -0.01 c 0,-0.4643 -0.26462,-0.699 -0.67903,-0.8355 z m -1.456265,-0.8704 h 0.615785 c 0.28294,0 0.42939,0.1082 0.42939,0.2929 v 0.01 c 0,0.1997 -0.16143,0.2979 -0.44936,0.2979 h -0.595815 z m 1.188305,1.5844 c 0,0.1997 -0.16643,0.3129 -0.45435,0.3129 h -0.733955 v -0.6308 h 0.723965 c 0.31789,0 0.46434,0.1215 0.46434,0.3079 z"
         fill="#093653"
         id="path1" /><path
         d="m 11.140899,34.233999 h -0.94698 v 3.4218 h 2.60462 v -0.8305 h -1.65764 z"
         fill="#093653"
         id="path2" /><path
         d="m 14.143319,36.305999 h 1.641 v -0.7473 h -1.641 v -0.5176 h 1.81242 v -0.8071 h -2.75108 v 3.4218 h 2.77605 v -0.8072 h -1.83739 z"
         fill="#093653"
         id="path3" /><path
         d="m 17.646499,34.210499 -1.45624,3.4451 h 0.99694 l 0.2446,-0.6108 h 1.3198 l 0.2497,0.6108 h 1.0168 l -1.4562,-3.4451 h -0.9137 z m 0.0633,2.097 0.3861,-0.9719 0.3811,0.9719 z"
         fill="#093653"
         id="path4" /><path
         d="m 21.805699,36.860399 c -0.4794,0 -0.8155,-0.4011 -0.8155,-0.9137 v -0.01 c 0,-0.4993 0.3378,-0.9037 0.8155,-0.9037 0.3278,0 0.5525,0.1564 0.7472,0.4011 l 0.714,-0.5526 c -0.3029,-0.421 -0.7523,-0.7139 -1.4513,-0.7139 -1.0368,0 -1.8041,0.7822 -1.8041,1.7791 v 0.01 c 0,1.0218 0.7873,1.7691 1.7642,1.7691 0.7573,0 1.1933,-0.3278 1.5145,-0.7722 l -0.714,-0.5076 c -0.2047,0.2496 -0.416,0.416 -0.7722,0.416 z"
         fill="#093653"
         id="path5" /><path
         d="m 25.863299,35.513799 h -1.2182 v -1.2798 h -0.947 v 3.4218 h 0.947 v -1.2999 h 1.2182 v 1.2999 h 0.947 v -3.4218 h -0.947 z"
         fill="#093653"
         id="path6" /><path
         d="m 28.354699,36.305999 h 1.6427 v -0.7473 h -1.6427 v -0.5176 h 1.8141 v -0.8071 h -2.7527 v 3.4218 h 2.7777 v -0.8072 h -1.8391 z"
         fill="#093653"
         id="path7" /><path
         d="m 33.007999,36.462499 c 0.4261,-0.1815 0.704,-0.5276 0.704,-1.0502 v -0.01 c 0,-0.3379 -0.1032,-0.6008 -0.3029,-0.7972 -0.2297,-0.2347 -0.5908,-0.3711 -1.1151,-0.3711 h -1.6177 v 3.4218 h 0.9487 v -1.0369 h 0.4161 l 0.689,1.0369 h 1.0951 l -0.8155,-1.1933 z m -0.2496,-0.992 c 0,0.2497 -0.1864,0.4061 -0.5076,0.4061 h -0.6258 v -0.8205 h 0.6208 c 0.3179,0 0.5126,0.1365 0.5126,0.4061 v 0.01 z"
         fill="#093653"
         id="path8" /></g><g
       id="g26"
       inkscape:label="NATION"
       transform="matrix(4.1696597,0,0,4.1696597,-27.931713,-10.546105)"><path
         d="m 37.591599,36.042999 -1.4063,-1.809 h -0.8854 v 3.4218 h 0.9386 v -1.8774 l 1.4613,1.8774 h 0.8305 v -3.4218 h -0.9387 z"
         fill="#093653"
         id="path9" /><path
         d="m 40.319399,34.210499 -1.4563,3.4451 h 0.9969 l 0.2447,-0.6108 h 1.3198 l 0.2496,0.6108 h 1.0169 l -1.4563,-3.4451 h -0.9137 z m 0.0632,2.097 0.3861,-0.9719 0.3812,0.9719 z"
         fill="#093653"
         id="path10" /><path
         d="m 42.391399,35.064399 h 1.0269 v 2.5914 h 0.9486 v -2.5914 h 1.0253 v -0.8304 h -3.0008 z"
         fill="#093653"
         id="path11" /><path
         d="m 46.781799,34.233999 h -0.9536 v 3.4218 h 0.9536 z"
         fill="#093653"
         id="path12" /><path
         d="m 49.136699,34.167599 c -1.0551,0 -1.8473,0.7971 -1.8473,1.7791 v 0.01 c 0,0.9819 0.7822,1.7691 1.8374,1.7691 1.0551,0 1.8473,-0.7972 1.8473,-1.7791 v -0.01 c 0,-0.9819 -0.7822,-1.7691 -1.8374,-1.7691 z m 0.8705,1.7891 c 0,0.4943 -0.3479,0.9137 -0.8705,0.9137 -0.5225,0 -0.8754,-0.4294 -0.8754,-0.9237 v -0.01 c 0,-0.4943 0.3479,-0.9137 0.8655,-0.9137 0.5176,0 0.8804,0.4294 0.8804,0.9237 z"
         fill="#093653"
         id="path13" /><path
         d="m 53.760299,34.233999 v 1.809 l -1.408,-1.809 h -0.8854 v 3.4218 h 0.9386 v -1.8774 l 1.4613,1.8774 h 0.8321 v -3.4218 z"
         fill="#093653"
         id="path14" /></g><g
       id="g27"
       inkscape:label="stars"
       transform="matrix(4.1696597,0,0,4.1696597,-27.931713,-10.546105)"><path
         d="m 19.741799,42.135099 -0.6707,-1.909 -0.669,1.909 -1.98553,-0.3745 1.31643,1.5328 -1.31643,1.5345 1.98553,-0.3744 0.669,1.9072 0.6707,-1.9072 1.9855,0.3744 -1.3164,-1.5345 1.3164,-1.5328 z"
         fill="#f80404"
         id="path15" /><path
         d="m 27.492599,42.135099 -0.6691,-1.909 -0.669,1.909 -1.9872,-0.3745 1.3181,1.5328 -1.3181,1.5345 1.9872,-0.3744 0.669,1.9072 0.6691,-1.9072 1.9871,0.3744 -1.3181,-1.5345 1.3181,-1.5328 z"
         fill="#f80404"
         id="path16" /><path
         d="m 35.243099,42.135099 -0.6691,-1.909 -0.669,1.909 -1.9872,-0.3745 1.3181,1.5328 -1.3181,1.5345 1.9872,-0.3744 0.669,1.9072 0.6691,-1.9072 1.9871,0.3744 -1.3181,-1.5345 1.3181,-1.5328 z"
         fill="#f80404"
         id="path17" /><path
         d="m 44.980999,41.760599 -1.9872,0.3745 -0.6691,-1.909 -0.669,1.909 -1.9872,-0.3745 1.3181,1.5328 -1.3181,1.5345 1.9872,-0.3744 0.669,1.9072 0.6691,-1.9072 1.9872,0.3744 -1.3182,-1.5345 z"
         fill="#f80404"
         id="path18" /></g><g
       id="g28"
       inkscape:label="BN"
       transform="matrix(4.1696597,0,0,4.1696597,-27.931713,-10.546105)"><path
         d="M 6.6987991,6.6987991 H 19.222599 c 3.069,0 5.2326,0.767241 6.6622,2.19687 0.977,0.97694 1.5695,2.2667799 1.5695,3.9410599 v 0.0699 c 0,2.82598 -1.6044,4.50027 -3.768,5.44227 2.9658,0.9769 4.8481,2.6512 4.8481,5.9648 v 0.0699 c 0,4.1857 -3.4185,6.7321 -9.2435,6.7321 H 6.6987991 Z M 17.548399,16.431609 c 2.0587,0 3.2087,-0.69734 3.2087,-2.12864 v -0.0699 c 0,-1.32478 -1.0468,-2.09368 -3.0689,-2.09368 h -4.39545 v 4.29056 h 4.25565 z m 0.9769,9.24349 c 2.0587,0 3.2437,-0.8022 3.2437,-2.2318 v -0.0699 c 0,-1.3265 -1.0468,-2.1969 -3.3136,-2.1969 h -5.16265 v 4.5003 h 5.23255 z"
         fill="#093653"
         id="path19" /><path
         d="m 31.639999,6.6987991 h 6.3143 l 10.0457,12.9065999 V 6.6987991 h 6.6971 V 31.117399 h -5.9299 l -10.4301,-13.396 v 13.396 h -6.6971 z"
         fill="#093653"
         id="path20" /></g></g></svg>
