<?xml version="1.0" encoding="UTF-8"?>
<svg version="1.1" xmlns="http://www.w3.org/2000/svg" width="512" height="512">
<path d="M0,0 L4,0 L4,1 L6,1 L6,2 L7,2 L7,3 L10,3 L10,4 L11,4 L11,6 L13,6 L13,7 L14,7 L14,8 L17,8 L17,9 L19,9 L19,10 L20,10 L20,11 L21,11 L21,12 L23,12 L23,14 L24,14 L24,15 L27,15 L27,16 L28,16 L28,17 L29,17 L29,18 L31,18 L31,19 L32,19 L32,20 L33,20 L33,21 L35,21 L35,22 L36,22 L36,23 L37,23 L37,24 L38,24 L38,25 L39,25 L39,26 L41,26 L41,27 L42,27 L42,28 L44,28 L44,29 L45,29 L45,31 L47,31 L47,32 L48,32 L48,33 L49,33 L49,34 L50,34 L50,35 L51,35 L51,36 L52,36 L52,37 L54,37 L54,38 L55,38 L55,40 L56,40 L56,41 L57,41 L57,42 L58,42 L58,43 L60,43 L60,44 L61,44 L61,45 L62,45 L62,46 L63,46 L63,48 L64,48 L64,49 L65,49 L65,50 L66,50 L66,51 L67,51 L67,52 L69,52 L69,53 L70,53 L70,55 L71,55 L71,56 L72,56 L72,57 L73,57 L73,58 L74,58 L74,59 L75,59 L75,61 L77,61 L77,62 L78,62 L78,64 L79,64 L79,65 L80,65 L80,67 L81,67 L81,68 L82,68 L82,69 L83,69 L83,71 L85,71 L85,72 L86,72 L86,74 L87,74 L87,75 L88,75 L88,77 L89,77 L89,78 L90,78 L90,79 L91,79 L91,82 L92,82 L92,83 L94,83 L94,84 L95,84 L95,86 L96,86 L96,88 L97,88 L97,89 L98,89 L98,91 L99,91 L99,93 L100,93 L100,95 L101,95 L101,96 L102,96 L102,97 L103,97 L103,99 L104,99 L104,100 L105,100 L105,102 L106,102 L106,106 L105,106 L105,107 L103,107 L103,109 L101,109 L101,110 L99,110 L99,111 L97,111 L97,112 L96,112 L96,113 L94,113 L94,114 L91,114 L91,115 L88,115 L88,117 L83,117 L83,118 L80,118 L80,119 L77,119 L77,120 L70,120 L70,121 L49,121 L49,120 L43,120 L43,119 L40,119 L40,118 L36,118 L36,117 L32,117 L32,115 L29,115 L29,114 L27,114 L27,113 L24,113 L24,112 L23,112 L23,111 L21,111 L21,110 L19,110 L19,109 L17,109 L17,107 L15,107 L15,106 L14,106 L14,105 L12,105 L12,104 L11,104 L11,103 L10,103 L10,102 L9,102 L9,101 L8,101 L8,100 L7,100 L7,99 L6,99 L6,98 L5,98 L5,97 L4,97 L4,96 L3,96 L3,95 L2,95 L2,93 L1,93 L1,92 L0,92 L0,91 L-1,91 L-1,90 L-2,90 L-2,89 L-3,89 L-3,87 L-4,87 L-4,85 L-5,85 L-5,84 L-6,84 L-6,81 L-7,81 L-7,79 L-8,79 L-8,77 L-9,77 L-9,74 L-10,74 L-10,73 L-11,73 L-11,70 L-12,70 L-12,67 L-13,67 L-13,63 L-14,63 L-14,54 L-15,54 L-15,37 L-14,37 L-14,29 L-13,29 L-13,25 L-12,25 L-12,23 L-11,23 L-11,19 L-9,19 L-9,16 L-8,16 L-8,14 L-7,14 L-7,11 L-6,11 L-6,9 L-5,9 L-5,7 L-4,7 L-4,6 L-3,6 L-3,3 L-2,3 L-2,2 L-1,2 L-1,1 L0,1 Z " fill="#E23D28" transform="translate(376,29)"/>
<path d="M0,0 L26,0 L26,1 L32,1 L32,2 L34,2 L34,3 L38,3 L38,4 L39,4 L39,5 L42,5 L42,6 L44,6 L44,7 L48,7 L48,8 L49,8 L49,9 L51,9 L51,10 L53,10 L53,11 L54,11 L54,12 L56,12 L56,13 L57,13 L57,14 L58,14 L58,15 L59,15 L59,19 L58,19 L58,21 L57,21 L57,22 L56,22 L56,24 L55,24 L55,25 L54,25 L54,26 L53,26 L53,28 L52,28 L52,30 L51,30 L51,32 L50,32 L50,33 L49,33 L49,35 L48,35 L48,36 L47,36 L47,38 L45,38 L45,40 L44,40 L44,42 L43,42 L43,43 L42,43 L42,44 L41,44 L41,46 L40,46 L40,47 L39,47 L39,49 L37,49 L37,50 L36,50 L36,51 L35,51 L35,53 L34,53 L34,54 L33,54 L33,56 L32,56 L32,57 L31,57 L31,58 L30,58 L30,60 L28,60 L28,61 L27,61 L27,63 L26,63 L26,64 L25,64 L25,65 L24,65 L24,66 L23,66 L23,67 L22,67 L22,69 L20,69 L20,70 L19,70 L19,71 L17,71 L17,74 L16,74 L16,75 L15,75 L15,76 L14,76 L14,77 L13,77 L13,78 L10,78 L10,80 L9,80 L9,81 L8,81 L8,83 L7,83 L7,84 L5,84 L5,85 L4,85 L4,86 L3,86 L3,87 L2,87 L2,88 L0,88 L0,89 L-1,89 L-1,91 L-2,91 L-2,92 L-3,92 L-3,93 L-5,93 L-5,94 L-7,94 L-7,95 L-8,95 L-8,96 L-9,96 L-9,97 L-10,97 L-10,98 L-11,98 L-11,99 L-12,99 L-12,100 L-14,100 L-14,101 L-15,101 L-15,102 L-17,102 L-17,103 L-18,103 L-18,104 L-19,104 L-19,105 L-21,105 L-21,106 L-23,106 L-23,108 L-24,108 L-24,109 L-26,109 L-26,110 L-27,110 L-27,111 L-28,111 L-28,112 L-31,112 L-31,113 L-33,113 L-33,114 L-35,114 L-35,115 L-36,115 L-36,117 L-38,117 L-38,118 L-40,118 L-40,119 L-42,119 L-42,120 L-43,120 L-43,121 L-46,121 L-46,120 L-47,120 L-47,119 L-48,119 L-48,118 L-49,118 L-49,117 L-50,117 L-50,115 L-51,115 L-51,113 L-52,113 L-52,112 L-53,112 L-53,110 L-54,110 L-54,108 L-55,108 L-55,105 L-56,105 L-56,102 L-57,102 L-57,101 L-58,101 L-58,97 L-59,97 L-59,95 L-60,95 L-60,90 L-61,90 L-61,81 L-62,81 L-62,68 L-61,68 L-61,59 L-60,59 L-60,54 L-59,54 L-59,51 L-58,51 L-58,48 L-56,48 L-56,44 L-55,44 L-55,42 L-54,42 L-54,40 L-53,40 L-53,37 L-52,37 L-52,36 L-51,36 L-51,34 L-50,34 L-50,32 L-49,32 L-49,31 L-47,31 L-47,28 L-45,28 L-45,26 L-44,26 L-44,25 L-43,25 L-43,24 L-42,24 L-42,23 L-41,23 L-41,22 L-40,22 L-40,21 L-39,21 L-39,20 L-38,20 L-38,19 L-37,19 L-37,18 L-36,18 L-36,17 L-35,17 L-35,16 L-33,16 L-33,15 L-32,15 L-32,14 L-30,14 L-30,12 L-29,12 L-29,11 L-27,11 L-27,10 L-25,10 L-25,9 L-23,9 L-23,8 L-21,8 L-21,7 L-19,7 L-19,6 L-16,6 L-16,5 L-12,5 L-12,3 L-9,3 L-9,2 L-6,2 L-6,1 L0,1 Z " fill="#E23D28" transform="translate(423,362)"/>
<path d="M0,0 L5,0 L5,1 L19,1 L19,2 L24,2 L24,3 L26,3 L26,4 L30,4 L30,6 L34,6 L34,7 L36,7 L36,8 L38,8 L38,9 L41,9 L41,10 L42,10 L42,11 L44,11 L44,12 L46,12 L46,13 L47,13 L47,14 L48,14 L48,15 L50,15 L50,16 L51,16 L51,17 L52,17 L52,18 L53,18 L53,19 L55,19 L55,20 L56,20 L56,21 L57,21 L57,23 L59,23 L59,24 L60,24 L60,25 L61,25 L61,27 L62,27 L62,28 L63,28 L63,30 L64,30 L64,31 L65,31 L65,33 L67,33 L67,35 L68,35 L68,36 L69,36 L69,38 L70,38 L70,40 L71,40 L71,42 L72,42 L72,45 L73,45 L73,49 L75,49 L75,51 L76,51 L76,55 L77,55 L77,59 L78,59 L78,67 L79,67 L79,85 L78,85 L78,91 L77,91 L77,95 L76,95 L76,99 L75,99 L75,102 L74,102 L74,103 L73,103 L73,106 L72,106 L72,109 L71,109 L71,111 L70,111 L70,112 L69,112 L69,114 L68,114 L68,116 L67,116 L67,118 L66,118 L66,119 L65,119 L65,120 L64,120 L64,121 L63,121 L63,122 L61,122 L61,121 L59,121 L59,120 L58,120 L58,119 L55,119 L55,118 L54,118 L54,116 L52,116 L52,115 L51,115 L51,114 L48,114 L48,113 L46,113 L46,112 L45,112 L45,111 L43,111 L43,110 L42,110 L42,109 L41,109 L41,108 L40,108 L40,107 L38,107 L38,106 L37,106 L37,105 L36,105 L36,104 L34,104 L34,103 L33,103 L33,102 L31,102 L31,101 L29,101 L29,99 L27,99 L27,97 L26,97 L26,96 L24,96 L24,95 L23,95 L23,94 L21,94 L21,93 L20,93 L20,92 L19,92 L19,91 L18,91 L18,90 L17,90 L17,89 L16,89 L16,88 L15,88 L15,87 L13,87 L13,86 L12,86 L12,85 L11,85 L11,84 L10,84 L10,82 L8,82 L8,81 L7,81 L7,80 L6,80 L6,79 L5,79 L5,78 L3,78 L3,77 L2,77 L2,75 L1,75 L1,74 L0,74 L0,73 L-1,73 L-1,72 L-2,72 L-2,70 L-4,70 L-4,69 L-5,69 L-5,68 L-6,68 L-6,67 L-7,67 L-7,65 L-8,65 L-8,64 L-9,64 L-9,63 L-10,63 L-10,62 L-11,62 L-11,60 L-13,60 L-13,59 L-14,59 L-14,58 L-15,58 L-15,56 L-16,56 L-16,54 L-17,54 L-17,53 L-18,53 L-18,52 L-19,52 L-19,51 L-21,51 L-21,50 L-22,50 L-22,47 L-23,47 L-23,46 L-24,46 L-24,45 L-25,45 L-25,44 L-26,44 L-26,42 L-27,42 L-27,41 L-28,41 L-28,38 L-30,38 L-30,37 L-31,37 L-31,35 L-32,35 L-32,34 L-33,34 L-33,33 L-34,33 L-34,30 L-35,30 L-35,28 L-36,28 L-36,27 L-37,27 L-37,26 L-38,26 L-38,25 L-39,25 L-39,23 L-40,23 L-40,21 L-41,21 L-41,20 L-42,20 L-42,15 L-40,15 L-40,14 L-39,14 L-39,13 L-38,13 L-38,12 L-36,12 L-36,11 L-34,11 L-34,10 L-33,10 L-33,9 L-31,9 L-31,8 L-28,8 L-28,7 L-26,7 L-26,6 L-22,6 L-22,4 L-18,4 L-18,3 L-16,3 L-16,2 L-10,2 L-10,1 L0,1 Z " fill="#E23D28" transform="translate(71,361)"/>
<path d="M0,0 L3,0 L3,1 L5,1 L5,3 L6,3 L6,4 L7,4 L7,6 L8,6 L8,7 L9,7 L9,9 L10,9 L10,11 L11,11 L11,14 L12,14 L12,16 L13,16 L13,19 L15,19 L15,22 L16,22 L16,26 L17,26 L17,29 L18,29 L18,36 L19,36 L19,57 L18,57 L18,64 L17,64 L17,67 L16,67 L16,71 L15,71 L15,73 L14,73 L14,74 L13,74 L13,77 L12,77 L12,79 L11,79 L11,82 L10,82 L10,84 L9,84 L9,85 L8,85 L8,88 L7,88 L7,89 L5,89 L5,91 L4,91 L4,92 L3,92 L3,94 L2,94 L2,95 L1,95 L1,96 L0,96 L0,97 L-1,97 L-1,98 L-2,98 L-2,99 L-3,99 L-3,100 L-4,100 L-4,101 L-5,101 L-5,102 L-6,102 L-6,103 L-7,103 L-7,104 L-9,104 L-9,105 L-10,105 L-10,106 L-11,106 L-11,107 L-13,107 L-13,109 L-14,109 L-14,110 L-16,110 L-16,111 L-18,111 L-18,112 L-19,112 L-19,113 L-23,113 L-23,114 L-25,114 L-25,115 L-28,115 L-28,116 L-29,116 L-29,117 L-31,117 L-31,118 L-35,118 L-35,119 L-38,119 L-38,120 L-43,120 L-43,121 L-68,121 L-68,120 L-74,120 L-74,119 L-76,119 L-76,118 L-81,118 L-81,117 L-84,117 L-84,115 L-87,115 L-87,114 L-90,114 L-90,113 L-92,113 L-92,112 L-93,112 L-93,111 L-95,111 L-95,110 L-97,110 L-97,109 L-99,109 L-99,108 L-100,108 L-100,107 L-101,107 L-101,106 L-102,106 L-102,102 L-101,102 L-101,101 L-100,101 L-100,99 L-99,99 L-99,97 L-98,97 L-98,95 L-96,95 L-96,93 L-95,93 L-95,92 L-94,92 L-94,89 L-93,89 L-93,88 L-92,88 L-92,86 L-91,86 L-91,85 L-90,85 L-90,84 L-89,84 L-89,83 L-88,83 L-88,82 L-87,82 L-87,80 L-86,80 L-86,78 L-85,78 L-85,77 L-84,77 L-84,76 L-83,76 L-83,74 L-82,74 L-82,72 L-81,72 L-81,71 L-79,71 L-79,69 L-78,69 L-78,68 L-77,68 L-77,67 L-76,67 L-76,66 L-75,66 L-75,64 L-74,64 L-74,63 L-73,63 L-73,61 L-71,61 L-71,60 L-70,60 L-70,59 L-69,59 L-69,58 L-68,58 L-68,56 L-67,56 L-67,55 L-66,55 L-66,54 L-65,54 L-65,53 L-64,53 L-64,51 L-62,51 L-62,50 L-61,50 L-61,49 L-60,49 L-60,48 L-59,48 L-59,46 L-58,46 L-58,45 L-57,45 L-57,44 L-56,44 L-56,43 L-54,43 L-54,42 L-53,42 L-53,41 L-52,41 L-52,40 L-51,40 L-51,39 L-50,39 L-50,38 L-49,38 L-49,37 L-48,37 L-48,36 L-47,36 L-47,35 L-46,35 L-46,34 L-44,34 L-44,33 L-43,33 L-43,32 L-42,32 L-42,31 L-40,31 L-40,29 L-39,29 L-39,28 L-38,28 L-38,27 L-36,27 L-36,26 L-35,26 L-35,25 L-34,25 L-34,24 L-33,24 L-33,23 L-31,23 L-31,21 L-29,21 L-29,20 L-28,20 L-28,19 L-26,19 L-26,18 L-25,18 L-25,17 L-24,17 L-24,16 L-22,16 L-22,15 L-20,15 L-20,14 L-19,14 L-19,12 L-17,12 L-17,11 L-15,11 L-15,10 L-14,10 L-14,9 L-13,9 L-13,8 L-10,8 L-10,7 L-8,7 L-8,6 L-7,6 L-7,5 L-6,5 L-6,4 L-5,4 L-5,3 L-3,3 L-3,2 L-1,2 L-1,1 L0,1 Z " fill="#E23D28" transform="translate(131,29)"/>
<path d="M0,0 L3,0 L3,1 L9,1 L9,2 L12,2 L12,3 L16,3 L16,4 L19,4 L19,5 L22,5 L22,7 L25,7 L25,8 L27,8 L27,9 L29,9 L29,10 L31,10 L31,11 L32,11 L32,12 L35,12 L35,13 L36,13 L36,14 L37,14 L37,16 L39,16 L39,17 L40,17 L40,18 L41,18 L41,19 L43,19 L43,20 L44,20 L44,21 L45,21 L45,22 L46,22 L46,24 L47,24 L47,25 L48,25 L48,26 L49,26 L49,27 L50,27 L50,28 L51,28 L51,29 L53,29 L53,31 L54,31 L54,33 L55,33 L55,35 L56,35 L56,37 L57,37 L57,39 L58,39 L58,41 L60,41 L60,44 L61,44 L61,46 L62,46 L62,50 L63,50 L63,52 L64,52 L64,56 L65,56 L65,62 L66,62 L66,87 L65,87 L65,94 L64,94 L64,97 L63,97 L63,100 L62,100 L62,103 L61,103 L61,106 L60,106 L60,108 L58,108 L58,111 L57,111 L57,113 L56,113 L56,114 L55,114 L55,116 L54,116 L54,118 L53,118 L53,120 L52,120 L52,121 L50,121 L50,122 L49,122 L49,124 L48,124 L48,125 L47,125 L47,127 L46,127 L46,128 L45,128 L45,129 L44,129 L44,130 L43,130 L43,131 L41,131 L41,132 L40,132 L40,133 L38,133 L38,134 L37,134 L37,136 L36,136 L36,137 L33,137 L33,138 L32,138 L32,139 L30,139 L30,140 L28,140 L28,141 L26,141 L26,142 L24,142 L24,143 L23,143 L23,144 L21,144 L21,145 L18,145 L18,146 L14,146 L14,147 L11,147 L11,148 L6,148 L6,149 L0,149 L0,148 L-1,148 L-1,146 L-2,146 L-2,142 L-3,142 L-3,137 L-4,137 L-4,131 L-5,131 L-5,124 L-6,124 L-6,116 L-7,116 L-7,112 L-8,112 L-8,98 L-9,98 L-9,51 L-8,51 L-8,39 L-7,39 L-7,34 L-6,34 L-6,26 L-5,26 L-5,18 L-4,18 L-4,12 L-3,12 L-3,7 L-2,7 L-2,3 L-1,3 L-1,1 L0,1 Z " fill="#E23D28" transform="translate(9,181)"/>
<path d="M0,0 L3,0 L3,1 L4,1 L4,4 L5,4 L5,9 L6,9 L6,14 L7,14 L7,20 L8,20 L8,28 L9,28 L9,36 L10,36 L10,43 L11,43 L11,56 L12,56 L12,93 L11,93 L11,107 L10,107 L10,114 L9,114 L9,121 L8,121 L8,129 L7,129 L7,135 L6,135 L6,140 L5,140 L5,145 L4,145 L4,149 L-4,149 L-4,148 L-8,148 L-8,147 L-12,147 L-12,146 L-15,146 L-15,145 L-18,145 L-18,144 L-20,144 L-20,143 L-21,143 L-21,142 L-23,142 L-23,141 L-25,141 L-25,140 L-27,140 L-27,139 L-29,139 L-29,138 L-31,138 L-31,137 L-33,137 L-33,136 L-34,136 L-34,134 L-36,134 L-36,133 L-37,133 L-37,132 L-38,132 L-38,131 L-39,131 L-39,130 L-41,130 L-41,129 L-42,129 L-42,128 L-43,128 L-43,127 L-44,127 L-44,125 L-45,125 L-45,124 L-46,124 L-46,123 L-47,123 L-47,122 L-48,122 L-48,121 L-49,121 L-49,120 L-50,120 L-50,119 L-51,119 L-51,117 L-52,117 L-52,115 L-53,115 L-53,113 L-54,113 L-54,112 L-55,112 L-55,109 L-56,109 L-56,107 L-58,107 L-58,104 L-59,104 L-59,100 L-60,100 L-60,98 L-61,98 L-61,95 L-62,95 L-62,89 L-63,89 L-63,77 L-64,77 L-64,72 L-63,72 L-63,60 L-62,60 L-62,54 L-61,54 L-61,51 L-60,51 L-60,49 L-59,49 L-59,46 L-58,46 L-58,43 L-56,43 L-56,41 L-55,41 L-55,38 L-54,38 L-54,37 L-53,37 L-53,35 L-52,35 L-52,33 L-51,33 L-51,31 L-50,31 L-50,29 L-49,29 L-49,28 L-47,28 L-47,27 L-46,27 L-46,26 L-45,26 L-45,24 L-44,24 L-44,22 L-42,22 L-42,21 L-41,21 L-41,20 L-40,20 L-40,19 L-39,19 L-39,18 L-37,18 L-37,17 L-36,17 L-36,16 L-34,16 L-34,14 L-33,14 L-33,13 L-32,13 L-32,12 L-30,12 L-30,11 L-28,11 L-28,10 L-26,10 L-26,9 L-24,9 L-24,8 L-22,8 L-22,7 L-20,7 L-20,6 L-19,6 L-19,5 L-17,5 L-17,4 L-13,4 L-13,3 L-9,3 L-9,2 L-6,2 L-6,1 L0,1 Z " fill="#E23D28" transform="translate(500,181)"/>
<path d="M0,0 L43,0 L43,1 L55,1 L55,2 L61,2 L61,3 L69,3 L69,4 L77,4 L77,5 L83,5 L83,6 L88,6 L88,7 L92,7 L92,8 L94,8 L94,9 L96,9 L96,13 L95,13 L95,16 L94,16 L94,22 L93,22 L93,25 L92,25 L92,29 L91,29 L91,31 L90,31 L90,32 L89,32 L89,34 L88,34 L88,37 L87,37 L87,38 L86,38 L86,40 L85,40 L85,42 L84,42 L84,44 L83,44 L83,45 L81,45 L81,47 L80,47 L80,48 L79,48 L79,50 L78,50 L78,51 L77,51 L77,53 L75,53 L75,55 L74,55 L74,56 L72,56 L72,57 L71,57 L71,58 L69,58 L69,59 L68,59 L68,61 L67,61 L67,62 L65,62 L65,63 L63,63 L63,64 L61,64 L61,65 L59,65 L59,66 L58,66 L58,67 L55,67 L55,69 L53,69 L53,70 L50,70 L50,71 L47,71 L47,72 L45,72 L45,73 L41,73 L41,74 L35,74 L35,75 L8,75 L8,74 L2,74 L2,73 L-2,73 L-2,72 L-4,72 L-4,71 L-8,71 L-8,70 L-10,70 L-10,69 L-12,69 L-12,68 L-13,68 L-13,67 L-15,67 L-15,66 L-17,66 L-17,65 L-18,65 L-18,64 L-20,64 L-20,63 L-22,63 L-22,62 L-24,62 L-24,61 L-25,61 L-25,59 L-26,59 L-26,58 L-28,58 L-28,57 L-29,57 L-29,56 L-31,56 L-31,55 L-32,55 L-32,54 L-33,54 L-33,53 L-34,53 L-34,52 L-35,52 L-35,50 L-36,50 L-36,48 L-37,48 L-37,47 L-39,47 L-39,46 L-40,46 L-40,44 L-41,44 L-41,42 L-42,42 L-42,40 L-43,40 L-43,38 L-44,38 L-44,37 L-45,37 L-45,35 L-46,35 L-46,32 L-48,32 L-48,29 L-49,29 L-49,25 L-50,25 L-50,22 L-51,22 L-51,20 L-52,20 L-52,13 L-53,13 L-53,9 L-51,9 L-51,8 L-49,8 L-49,7 L-45,7 L-45,6 L-40,6 L-40,5 L-34,5 L-34,4 L-26,4 L-26,3 L-18,3 L-18,2 L-12,2 L-12,1 L0,1 Z " fill="#E23D28" transform="translate(234,0)"/>
<path d="M0,0 L21,0 L21,1 L27,1 L27,2 L31,2 L31,3 L34,3 L34,4 L38,4 L38,5 L41,5 L41,7 L43,7 L43,8 L45,8 L45,9 L48,9 L48,10 L49,10 L49,11 L51,11 L51,12 L53,12 L53,13 L55,13 L55,14 L56,14 L56,16 L57,16 L57,17 L59,17 L59,18 L60,18 L60,19 L61,19 L61,20 L63,20 L63,21 L64,21 L64,22 L65,22 L65,24 L66,24 L66,25 L67,25 L67,26 L68,26 L68,28 L69,28 L69,29 L70,29 L70,30 L72,30 L72,32 L73,32 L73,34 L74,34 L74,35 L75,35 L75,37 L76,37 L76,39 L77,39 L77,41 L78,41 L78,44 L80,44 L80,46 L81,46 L81,50 L82,50 L82,54 L83,54 L83,59 L84,59 L84,62 L85,62 L85,67 L84,67 L84,68 L79,68 L79,69 L74,69 L74,70 L68,70 L68,71 L61,71 L61,72 L57,72 L57,73 L50,73 L50,74 L36,74 L36,75 L-17,75 L-17,74 L-29,74 L-29,73 L-36,73 L-36,72 L-40,72 L-40,71 L-47,71 L-47,70 L-53,70 L-53,69 L-59,69 L-59,68 L-63,68 L-63,67 L-64,67 L-64,62 L-63,62 L-63,56 L-62,56 L-62,54 L-61,54 L-61,50 L-60,50 L-60,46 L-59,46 L-59,44 L-58,44 L-58,43 L-57,43 L-57,41 L-56,41 L-56,38 L-55,38 L-55,37 L-54,37 L-54,35 L-53,35 L-53,33 L-52,33 L-52,32 L-51,32 L-51,30 L-50,30 L-50,29 L-48,29 L-48,27 L-47,27 L-47,26 L-46,26 L-46,25 L-45,25 L-45,23 L-44,23 L-44,22 L-43,22 L-43,21 L-42,21 L-42,20 L-40,20 L-40,19 L-39,19 L-39,18 L-38,18 L-38,17 L-36,17 L-36,16 L-35,16 L-35,14 L-34,14 L-34,13 L-32,13 L-32,12 L-31,12 L-31,11 L-29,11 L-29,10 L-27,10 L-27,9 L-25,9 L-25,8 L-22,8 L-22,7 L-20,7 L-20,5 L-17,5 L-17,4 L-13,4 L-13,3 L-10,3 L-10,2 L-7,2 L-7,1 L0,1 Z " fill="#E23D28" transform="translate(245,437)"/>
<path d="M0,0 L17,0 L17,1 L19,1 L19,3 L21,3 L21,4 L23,4 L23,5 L25,5 L25,6 L26,6 L26,7 L27,7 L27,8 L28,8 L28,10 L29,10 L29,12 L31,12 L31,14 L32,14 L32,18 L33,18 L33,29 L32,29 L32,33 L31,33 L31,35 L30,35 L30,36 L29,36 L29,38 L28,38 L28,40 L27,40 L27,41 L26,41 L26,42 L25,42 L25,43 L24,43 L24,44 L21,44 L21,46 L19,46 L19,47 L16,47 L16,48 L11,48 L11,49 L6,49 L6,48 L1,48 L1,47 L-2,47 L-2,46 L-4,46 L-4,45 L-5,45 L-5,44 L-7,44 L-7,43 L-8,43 L-8,42 L-9,42 L-9,41 L-10,41 L-10,39 L-11,39 L-11,38 L-12,38 L-12,36 L-13,36 L-13,35 L-14,35 L-14,33 L-15,33 L-15,30 L-16,30 L-16,18 L-15,18 L-15,14 L-14,14 L-14,12 L-12,12 L-12,10 L-11,10 L-11,8 L-10,8 L-10,7 L-9,7 L-9,6 L-8,6 L-8,5 L-7,5 L-7,4 L-4,4 L-4,3 L-2,3 L-2,1 L0,1 Z " fill="#E23C28" transform="translate(345,330)"/>
<path d="M0,0 L7,0 L7,1 L12,1 L12,2 L15,2 L15,4 L18,4 L18,6 L20,6 L20,7 L21,7 L21,8 L22,8 L22,9 L23,9 L23,11 L24,11 L24,13 L25,13 L25,14 L26,14 L26,15 L27,15 L27,18 L28,18 L28,31 L27,31 L27,34 L26,34 L26,36 L25,36 L25,37 L24,37 L24,39 L23,39 L23,40 L22,40 L22,42 L21,42 L21,43 L20,43 L20,44 L18,44 L18,45 L16,45 L16,46 L15,46 L15,47 L13,47 L13,48 L10,48 L10,49 L-3,49 L-3,48 L-6,48 L-6,47 L-8,47 L-8,46 L-9,46 L-9,45 L-11,45 L-11,44 L-12,44 L-12,43 L-13,43 L-13,42 L-14,42 L-14,41 L-15,41 L-15,40 L-16,40 L-16,39 L-17,39 L-17,36 L-19,36 L-19,33 L-20,33 L-20,27 L-21,27 L-21,22 L-20,22 L-20,16 L-19,16 L-19,13 L-17,13 L-17,11 L-16,11 L-16,9 L-15,9 L-15,8 L-14,8 L-14,7 L-13,7 L-13,6 L-12,6 L-12,5 L-10,5 L-10,4 L-8,4 L-8,2 L-5,2 L-5,1 L0,1 Z " fill="#E13D28" transform="translate(154,329)"/>
<path d="M0,0 L4,0 L4,1 L11,1 L11,2 L13,2 L13,4 L16,4 L16,5 L18,5 L18,6 L19,6 L19,7 L20,7 L20,8 L21,8 L21,9 L22,9 L22,10 L23,10 L23,13 L24,13 L24,14 L25,14 L25,16 L26,16 L26,22 L27,22 L27,28 L26,28 L26,33 L25,33 L25,36 L23,36 L23,39 L22,39 L22,40 L21,40 L21,41 L20,41 L20,42 L19,42 L19,43 L18,43 L18,44 L17,44 L17,45 L14,45 L14,47 L13,47 L13,48 L9,48 L9,49 L-4,49 L-4,48 L-8,48 L-8,47 L-10,47 L-10,46 L-11,46 L-11,45 L-12,45 L-12,44 L-13,44 L-13,43 L-15,43 L-15,42 L-16,42 L-16,40 L-17,40 L-17,39 L-18,39 L-18,37 L-20,37 L-20,35 L-21,35 L-21,31 L-22,31 L-22,19 L-21,19 L-21,15 L-20,15 L-20,13 L-18,13 L-18,10 L-17,10 L-17,9 L-16,9 L-16,8 L-15,8 L-15,7 L-14,7 L-14,6 L-13,6 L-13,5 L-11,5 L-11,4 L-9,4 L-9,3 L-8,3 L-8,2 L-6,2 L-6,1 L0,1 Z " fill="#E23D28" transform="translate(351,133)"/>
<path d="M0,0 L15,0 L15,1 L18,1 L18,2 L19,2 L19,3 L20,3 L20,4 L23,4 L23,5 L24,5 L24,6 L25,6 L25,7 L26,7 L26,8 L27,8 L27,10 L28,10 L28,12 L29,12 L29,13 L30,13 L30,14 L31,14 L31,17 L32,17 L32,31 L31,31 L31,34 L30,34 L30,35 L29,35 L29,36 L28,36 L28,38 L27,38 L27,40 L26,40 L26,41 L25,41 L25,42 L24,42 L24,43 L22,43 L22,44 L20,44 L20,46 L18,46 L18,47 L15,47 L15,48 L0,48 L0,47 L-3,47 L-3,46 L-4,46 L-4,45 L-5,45 L-5,44 L-7,44 L-7,43 L-8,43 L-8,42 L-9,42 L-9,41 L-11,41 L-11,39 L-12,39 L-12,38 L-13,38 L-13,35 L-15,35 L-15,32 L-16,32 L-16,25 L-17,25 L-17,22 L-16,22 L-16,15 L-15,15 L-15,13 L-13,13 L-13,10 L-12,10 L-12,9 L-11,9 L-11,7 L-10,7 L-10,6 L-9,6 L-9,5 L-7,5 L-7,4 L-6,4 L-6,3 L-3,3 L-3,2 L-2,2 L-2,1 L0,1 Z " fill="#E23D28" transform="translate(150,134)"/>
<path d="M0,0 L4,0 L4,1 L9,1 L9,2 L13,2 L13,3 L15,3 L15,4 L17,4 L17,6 L18,6 L18,7 L19,7 L19,8 L21,8 L21,9 L22,9 L22,10 L23,10 L23,12 L24,12 L24,15 L25,15 L25,18 L26,18 L26,24 L27,24 L27,27 L26,27 L26,32 L25,32 L25,35 L24,35 L24,37 L23,37 L23,39 L22,39 L22,41 L21,41 L21,42 L20,42 L20,43 L18,43 L18,44 L17,44 L17,45 L15,45 L15,46 L14,46 L14,47 L11,47 L11,48 L10,48 L10,49 L5,49 L5,50 L0,50 L0,49 L-5,49 L-5,48 L-6,48 L-6,47 L-9,47 L-9,46 L-10,46 L-10,45 L-12,45 L-12,44 L-13,44 L-13,43 L-16,43 L-16,41 L-17,41 L-17,39 L-18,39 L-18,37 L-19,37 L-19,36 L-20,36 L-20,34 L-21,34 L-21,28 L-22,28 L-22,23 L-21,23 L-21,16 L-20,16 L-20,14 L-19,14 L-19,12 L-18,12 L-18,10 L-17,10 L-17,9 L-16,9 L-16,8 L-14,8 L-14,7 L-13,7 L-13,6 L-12,6 L-12,4 L-10,4 L-10,3 L-8,3 L-8,2 L-4,2 L-4,1 L0,1 Z " fill="#E23D28" transform="translate(253,370)"/>
<path d="M0,0 L15,0 L15,1 L16,1 L16,2 L19,2 L19,3 L21,3 L21,4 L23,4 L23,5 L24,5 L24,6 L25,6 L25,7 L26,7 L26,9 L27,9 L27,10 L28,10 L28,12 L29,12 L29,13 L30,13 L30,18 L32,18 L32,30 L30,30 L30,34 L29,34 L29,35 L28,35 L28,38 L27,38 L27,39 L26,39 L26,40 L25,40 L25,42 L24,42 L24,43 L22,43 L22,44 L20,44 L20,45 L18,45 L18,46 L16,46 L16,47 L13,47 L13,48 L2,48 L2,47 L-2,47 L-2,46 L-3,46 L-3,45 L-6,45 L-6,44 L-8,44 L-8,43 L-9,43 L-9,42 L-10,42 L-10,40 L-11,40 L-11,39 L-13,39 L-13,37 L-14,37 L-14,36 L-15,36 L-15,32 L-16,32 L-16,30 L-17,30 L-17,17 L-16,17 L-16,16 L-15,16 L-15,12 L-14,12 L-14,10 L-13,10 L-13,9 L-11,9 L-11,7 L-9,7 L-9,5 L-8,5 L-8,4 L-7,4 L-7,3 L-5,3 L-5,2 L-1,2 L-1,1 L0,1 Z " fill="#E23D28" transform="translate(387,232)"/>
<path d="M0,0 L14,0 L14,1 L15,1 L15,2 L19,2 L19,3 L21,3 L21,4 L22,4 L22,5 L23,5 L23,7 L24,7 L24,8 L25,8 L25,9 L27,9 L27,11 L28,11 L28,12 L29,12 L29,17 L30,17 L30,19 L31,19 L31,29 L30,29 L30,31 L29,31 L29,35 L28,35 L28,37 L27,37 L27,38 L26,38 L26,39 L25,39 L25,40 L24,40 L24,42 L22,42 L22,43 L21,43 L21,44 L20,44 L20,45 L17,45 L17,46 L15,46 L15,47 L11,47 L11,48 L1,48 L1,47 L-3,47 L-3,46 L-5,46 L-5,45 L-7,45 L-7,44 L-8,44 L-8,43 L-10,43 L-10,42 L-11,42 L-11,41 L-12,41 L-12,39 L-13,39 L-13,38 L-14,38 L-14,36 L-15,36 L-15,35 L-16,35 L-16,31 L-17,31 L-17,17 L-16,17 L-16,13 L-15,13 L-15,11 L-14,11 L-14,10 L-13,10 L-13,9 L-12,9 L-12,7 L-11,7 L-11,5 L-9,5 L-9,4 L-7,4 L-7,3 L-5,3 L-5,2 L-3,2 L-3,1 L0,1 Z " fill="#E23D28" transform="translate(111,232)"/>
<path d="M0,0 L13,0 L13,1 L17,1 L17,2 L19,2 L19,3 L20,3 L20,4 L22,4 L22,5 L23,5 L23,6 L24,6 L24,7 L25,7 L25,8 L26,8 L26,10 L27,10 L27,11 L28,11 L28,13 L29,13 L29,18 L30,18 L30,22 L31,22 L31,25 L30,25 L30,30 L29,30 L29,33 L28,33 L28,37 L27,37 L27,38 L26,38 L26,39 L25,39 L25,40 L24,40 L24,41 L23,41 L23,42 L21,42 L21,44 L20,44 L20,45 L18,45 L18,46 L14,46 L14,47 L13,47 L13,48 L0,48 L0,47 L-1,47 L-1,46 L-5,46 L-5,45 L-7,45 L-7,44 L-8,44 L-8,42 L-10,42 L-10,41 L-12,41 L-12,40 L-13,40 L-13,38 L-14,38 L-14,37 L-15,37 L-15,34 L-16,34 L-16,32 L-17,32 L-17,27 L-18,27 L-18,21 L-17,21 L-17,15 L-16,15 L-16,13 L-15,13 L-15,11 L-14,11 L-14,9 L-13,9 L-13,8 L-12,8 L-12,6 L-10,6 L-10,5 L-9,5 L-9,4 L-7,4 L-7,3 L-6,3 L-6,2 L-4,2 L-4,1 L0,1 Z " fill="#E23D28" transform="translate(249,94)"/>
</svg>
