<?xml version="1.0" encoding="UTF-8" standalone="no"?>
<svg
   xmlns="http://www.w3.org/2000/svg"
   version="1.1"
   viewBox="0 0 77.233902 75.11203"
   height="75.11203"
   width="77.233902">
  <ellipse
     cx="25.528276"
     cy="37.448799"
     rx="5.4057102"
     ry="5.4737501"
     id="ellipse8"
     style="fill:#ffffff" />
  <ellipse
     cx="40.972076"
     cy="37.448799"
     rx="5.4057102"
     ry="5.4737501"
     id="ellipse10"
     style="fill:#ffffff" />
  <ellipse
     cx="56.416176"
     cy="37.448799"
     rx="5.4057102"
     ry="5.4737501"
     id="ellipse12"
     style="fill:#ffffff" />
  <path
     d="m 41.089578,0.00159859 c -10.1229,0.0857 -19.9788,3.61280001 -27.5877,10.00520041 -7.6235004,6.4048 -12.4958004,15.2886 -13.36320043,24.9619 -0.8691,9.6922 2.37640003,19.1814 8.90390003,26.5442 0.8874,1.0009 1.8256004,1.9519 2.8098004,2.8513 -1.0988,3.9653 -3.1446004,6.5406 -4.9704004,8.0439 -0.7464,0.6146 -0.5833,2.063 0.375,2.19 4.0637004,0.539 9.9937004,0.187 14.3800004,-3.6702 4.0962,1.9545 8.5503,3.2572 13.1713,3.8382 10.0219,1.259 20.2894,-0.9411 28.7784,-6.2322 5.472,-3.4107 10.0164,-7.3947 13.1974,-12.568 0.861,-1.4009 0.249,-3.1938 -1.219,-3.9323 l -5.7118,-2.8734 c -1.4912,-0.7502 -3.2917,-0.1202 -4.2565,1.2434 -2.0854,2.9475 -4.9696,5.2758 -8.4959,7.4737 -6.0428,3.7665 -13.4811,5.3905 -20.7855,4.4727 -7.3025,-0.9175 -13.7283,-4.2768 -18.0829,-9.1887 -4.3307,-4.8848 -6.334,-10.9678 -5.7889,-17.0466 0.5468,-6.0978 3.6472,-12.0168 8.9543,-16.4755 5.3219,-4.471 12.3979,-7.0642 19.8097,-7.127 7.4114,-0.0627 14.3972,2.4092 19.5866,6.7372 1.9727,1.6453 3.6449,3.903 4.9708,6.1367 0.8507,1.4332 2.6525,2.0496 4.1419,1.2998 l 5.6982,-2.8683 c 1.471,-0.7406 2.079,-2.5335 1.265,-3.9644 -2.1418,-3.7666 -4.9307,-7.5076 -8.2277,-10.2572004 -7.5755,-6.318 -17.4295,-9.68010001 -27.5528,-9.59440001 z"
     id="path14"
     style="clip-rule:evenodd;fill:#ffffff;fill-rule:evenodd" />
  <defs
     id="defs33">
    <linearGradient
       gradientUnits="userSpaceOnUse"
       y2="128"
       x2="64"
       y1="0"
       x1="64"
       id="paint0_linear">
      <stop
         id="stop18"
         stop-color="#6F00C7" />
      <stop
         id="stop20"
         stop-color="#8F00FF"
         offset="1" />
    </linearGradient>
    <linearGradient
       gradientUnits="userSpaceOnUse"
       y2="44.638199"
       x2="124.827"
       y1="-9.3053102"
       x1="1.10839"
       id="paint1_linear">
      <stop
         id="stop23"
         stop-color="#8F00FF" />
      <stop
         id="stop25"
         stop-opacity="0"
         stop-color="#8F00FF"
         offset="1" />
      <stop
         id="stop27"
         stop-color="#8A01F6"
         offset="1" />
    </linearGradient>
    <clipPath
       id="clip0">
      <rect
         style="fill:#ffffff"
         y="0"
         x="0"
         id="rect30"
         height="128"
         width="128" />
    </clipPath>
  </defs>
</svg>
