<?xml version="1.0" standalone="no"?>
<!DOCTYPE svg PUBLIC "-//W3C//DTD SVG 20010904//EN"
 "http://www.w3.org/TR/2001/REC-SVG-20010904/DTD/svg10.dtd">
<svg version="1.0" xmlns="http://www.w3.org/2000/svg"
 width="135.000000pt" height="130.000000pt" viewBox="0 0 135.000000 130.000000"
 preserveAspectRatio="xMidYMid meet">

<g transform="translate(0.000000,130.000000) scale(0.100000,-0.100000)"
fill="#000000" stroke="none">
<path d="M835 1281 c-65 -19 -120 -44 -148 -69 -11 -10 -45 -17 -95 -20 -110
-6 -415 16 -469 34 -25 9 -48 13 -51 9 -3 -3 2 -36 12 -73 40 -150 26 -297
-40 -429 -38 -75 -31 -85 46 -66 33 9 63 14 65 11 2 -2 12 -81 21 -176 l17
-171 -32 -122 c-18 -67 -29 -125 -24 -130 4 -4 64 3 133 17 282 54 360 53 488
-8 35 -16 65 -28 66 -26 1 1 25 32 53 68 28 36 67 91 88 124 31 50 36 62 26
82 -5 13 -8 45 -4 71 l5 49 61 17 c278 82 388 417 214 655 -48 64 -127 118
-218 148 -86 28 -132 29 -214 5z m171 -12 c123 -22 234 -106 285 -214 40 -83
52 -158 40 -235 -29 -180 -160 -313 -335 -342 -177 -29 -345 61 -428 229 -31
63 -33 74 -33 168 0 91 3 106 31 166 66 138 202 229 360 238 11 0 47 -4 80
-10z m-761 -99 c50 -5 154 -10 233 -10 l142 0 -34 -50 c-52 -76 -71 -141 -70
-241 l0 -86 -131 -16 c-72 -9 -172 -27 -221 -40 l-90 -23 23 55 c36 90 46 156
40 271 -3 58 -9 118 -13 134 -6 24 -4 27 12 22 11 -3 59 -10 109 -16z m305
-472 c7 -18 15 -36 18 -40 2 -5 -15 -8 -38 -8 l-42 0 7 -186 8 -187 -24 6
c-13 3 -72 9 -132 13 -124 8 -110 -8 -126 149 -20 202 -22 245 -9 250 29 11
197 33 258 34 65 1 66 1 80 -31z m150 -191 c0 -23 5 -24 103 -36 164 -19 150
-11 142 -89 -4 -37 -9 -70 -11 -74 -8 -13 -78 -27 -173 -34 l-94 -7 6 93 c4
51 7 110 7 132 0 21 5 38 10 38 6 0 10 -11 10 -23z"/>
<path d="M859 1250 c-171 -29 -308 -194 -309 -371 0 -226 200 -409 422 -385
35 3 89 18 123 34 334 157 272 654 -90 721 -65 12 -79 12 -146 1z m206 -104
c63 -31 119 -90 148 -155 31 -70 27 -174 -8 -246 -14 -30 -32 -55 -39 -55 -7
0 -34 22 -59 49 l-46 49 15 54 c9 29 20 57 25 62 5 6 9 25 9 43 0 37 -22 45
-40 16 -8 -14 -10 -8 -8 30 2 48 -11 75 -31 63 -6 -4 -11 -17 -11 -28 0 -30
-11 -16 -19 24 -11 52 -34 42 -47 -22 l-11 -55 -4 45 c-3 32 -8 45 -19 45 -11
0 -16 -14 -18 -52 -2 -29 -6 -53 -10 -53 -4 0 -41 34 -82 75 -80 81 -80 77
-18 110 76 42 188 42 273 1z m-175 -295 c0 -10 -9 -6 -28 12 -46 44 -75 30
-47 -23 15 -29 15 -30 -5 -30 -18 0 -20 6 -20 54 0 46 -4 58 -25 74 -25 20
-56 20 -81 0 -6 -4 -17 -29 -24 -53 -10 -36 -10 -48 0 -60 10 -13 9 -15 -9
-15 -19 0 -21 6 -21 59 0 60 18 127 46 170 l16 24 99 -99 c54 -54 99 -105 99
-113z m117 117 c-3 -8 -6 -5 -6 6 -1 11 2 17 5 13 3 -3 4 -12 1 -19z m-244
-46 c21 -23 13 -32 -29 -32 -18 0 -36 -4 -39 -10 -4 -6 10 -10 34 -10 37 0 41
-3 41 -24 0 -14 -4 -28 -10 -31 -5 -3 -10 1 -10 9 0 9 -6 16 -14 16 -19 0 -29
-30 -15 -46 6 -7 8 -18 4 -25 -6 -8 -2 -8 13 0 12 6 24 16 27 21 12 19 63 11
79 -12 19 -26 13 -38 -20 -38 -14 0 -41 -15 -64 -36 -22 -20 -46 -34 -54 -31
-7 3 -25 29 -40 58 -26 53 -26 53 -5 61 16 6 19 13 14 30 -9 30 -9 28 0 63 13
53 57 71 88 37z m139 -218 c35 -18 88 -18 114 0 19 14 24 12 63 -28 l43 -44
-58 -28 c-101 -49 -235 -37 -318 30 -19 15 -19 16 0 37 50 57 91 65 156 33z"/>
<path d="M296 639 c-38 -5 -72 -11 -74 -14 -2 -2 -1 -36 3 -75 l7 -72 112 7
c61 4 112 8 113 9 2 1 5 123 4 144 -1 14 -58 14 -165 1z m144 -39 c0 -16 -7
-20 -30 -20 -33 0 -43 25 -12 33 34 9 42 7 42 -13z m-146 -16 c3 -7 -4 -16
-15 -19 -24 -8 -24 -7 -33 21 -6 18 -3 21 18 17 14 -3 27 -11 30 -19z m60 -6
c-3 -4 -12 -8 -20 -8 -17 0 -19 27 -1 33 14 5 28 -13 21 -25z m14 -51 c3 -12
-4 -17 -22 -17 -27 0 -37 24 -13 33 19 8 32 2 35 -16z m72 8 c0 -8 -9 -15 -19
-15 -10 0 -21 7 -25 15 -4 11 1 15 19 15 16 0 25 -6 25 -15z m-142 -12 c-2
-10 -13 -19 -26 -21 -17 -3 -22 2 -22 17 0 16 6 21 26 21 19 0 25 -5 22 -17z"/>
</g>
</svg>
