<svg id="Layer_1" data-name="Layer 1" xmlns="http://www.w3.org/2000/svg" xmlns:xlink="http://www.w3.org/1999/xlink" viewBox="0 0 1024 1024"><defs><style>.cls-1{fill:url(#linear-gradient);}.cls-2{fill:url(#linear-gradient-2);}.cls-3{fill:url(#linear-gradient-3);}.cls-4{fill:url(#linear-gradient-4);}</style><linearGradient id="linear-gradient" x1="156.16" y1="550.06" x2="721.81" y2="550.06" gradientUnits="userSpaceOnUse"><stop offset="0" stop-color="#f33400"/><stop offset="0.17" stop-color="#f33800"/><stop offset="0.34" stop-color="#f44400"/><stop offset="0.51" stop-color="#f65800"/><stop offset="0.68" stop-color="#f97400"/><stop offset="0.85" stop-color="#fc9800"/><stop offset="1" stop-color="#ffc000"/></linearGradient><linearGradient id="linear-gradient-2" x1="79.47" y1="749.98" x2="432.1" y2="749.98" xlink:href="#linear-gradient"/><linearGradient id="linear-gradient-3" x1="655.08" y1="448.68" x2="944.53" y2="448.68" xlink:href="#linear-gradient"/><linearGradient id="linear-gradient-4" x1="633.9" y1="165.05" x2="801.9" y2="165.05" xlink:href="#linear-gradient"/></defs><path class="cls-1" d="M568,250.93c24.67-.09,48.77,2.72,71.38,13.53,19.83,9.48,34.58,24.06,44,43.91,5.3,11.15,10,22.57,15.5,33.64,4.46,9.06,3.68,17-1.88,25.5-27.11,41.32-53.93,82.84-80.83,124.3-8.87,13.68-8.23,20.24,2.62,32.13Q660.48,569.6,702,615.4a100.88,100.88,0,0,1,9.14,11.66c15.84,23.67,14.32,47.49-6.62,66.84a579.78,579.78,0,0,1-55.14,44.38c-44.8,32.23-90.2,63.64-135.44,95.25-11.6,8.11-24.18,14.26-38.53,15.48a47.59,47.59,0,0,1-14.68-.93c-12.14-2.84-17.37-13.32-12.24-24.67a58.73,58.73,0,0,1,8.65-12.94q42.9-51.68,86-103.18c9.87-11.84,10.74-19,.2-30.3a250.45,250.45,0,0,0-33.85-29.88c-29.81-22-60.75-42.52-90.2-65-12.94-9.87-24.42-22.2-34.72-34.91-19.74-24.35-19.82-46.43-2.35-72.44,14.39-21.43,28.71-42.91,43.16-64.3,3.54-5.24,6.46-10.44,2.56-16.65-4.16-6.62-10.46-5.82-16.91-4.72q-108.36,18.48-216.73,36.74a43.21,43.21,0,0,1-16.35-.14c-11.74-2.65-19.16-10.26-21.4-22.34-2-10.65,3.31-22.17,14.57-28.12S194,364.67,205.73,360c80.45-32.28,161-64.36,244.12-89.33C494.23,257.32,533.81,251.12,568,250.93Z"/><path class="cls-2" d="M111.27,942.78c-27.71.11-39.23-19.9-26.83-40.43,7.78-12.89,17.15-24.83,25.85-37.17Q216.15,715.09,322,565c7.42-10.52,14.74-10.47,21.24.35,12.15,20.21,29.72,35,48.36,48.82,10.16,7.5,20.51,14.75,30.61,22.33,12.51,9.39,13.23,22.3,1.67,32.77Q278.6,801,133.21,932.58C125.76,939.32,117,942.72,111.27,942.78Z"/><path class="cls-3" d="M724.06,561.46c-12.6-.23-27.66-6.58-39.51-19.7-8.28-9.17-16.2-18.67-24-28.22-6.6-8-7.24-15.59-1.59-24.23Q685.28,449,712.13,409c5.35-8,13.8-7.9,18.38.5,4.35,8,10.07,8.59,17.14,5.17,49.86-24.1,99.59-48.48,149.58-72.3,7.42-3.54,16-6.48,24.06-6.49,17.81,0,28.46,18,20.62,34A67.2,67.2,0,0,1,929.22,387Q850.82,466.4,772,545.44C761.3,556.16,745.56,561.52,724.06,561.46Z"/><path class="cls-4" d="M716.69,248.88c-46.91-.75-83.4-38.48-82.78-85.59.61-46.06,39-82.91,85.43-82.06s83.52,39.14,82.54,85.11C800.89,212.81,762.91,249.61,716.69,248.88Z"/></svg>