<?xml version="1.0" encoding="utf-8"?>
<!-- Generator: Adobe Illustrator 26.0.3, SVG Export Plug-In . SVG Version: 6.00 Build 0)  -->
<svg version="1.0" id="katman_1" xmlns="http://www.w3.org/2000/svg" xmlns:xlink="http://www.w3.org/1999/xlink" x="0px" y="0px"
	 viewBox="0 0 800 600" style="enable-background:new 0 0 800 600;" xml:space="preserve">
<style type="text/css">
	.st0{fill:#09BAC8;}
</style>
<path class="st0" d="M440,182.8h-15.9v15.9H440V182.8z"/>
<path class="st0" d="M400.5,317.9h-31.9v15.9h31.9V317.9z"/>
<path class="st0" d="M543.8,317.9H512v15.9h31.9V317.9z"/>
<path class="st0" d="M655.2,420.9v-95.4h-15.9v95.4h-15.9V262h-31.9V134.8H209.4V262h-31.9v159h-15.9v-95.4h-16v95.4h-15.9v31.2
	h31.9v15.8h47.8v-15.8h15.9v15.8H273v-15.8h254.8v15.8h47.8v-15.8h15.9v15.8h47.8v-15.8h31.9v-31.2H655.2z M487.8,151h79.6v31.8
	h-23.6v63.6H512v-63.6h-24.2L487.8,151L487.8,151z M233,214.6V151h63.7v23.5h-31.9v15.8h31.9v24.2h-31.9v31.8H233V214.6z M305,317.9
	v15.8h-47.8v31.8H305v47.7h-95.5V286.1H305L305,317.9z M312.6,246.4V151h31.9v63.6h31.9v31.8L312.6,246.4L312.6,246.4L312.6,246.4z
	 M448.3,317.9v95.4h-47.8v-47.7h-31.9v47.7h-47.8V302h15.9v-15.8h95.5V302h15.9L448.3,317.9z M440,246.4v-31.8h-15.9v31.8h-31.9
	v-79.5h15.9v-15.8h47.8v15.8h15.9v79.5H440z M591.6,317.9v47.7h-15.9v15.8h15.9v31.8h-47.8v-31.7H528v-15.8h-15.9v47.7h-47.8V286.1
	h127.3V317.9z"/>
</svg>
