<?xml version="1.0" encoding="UTF-8" standalone="no"?>
<!-- Created with Inkscape (http://www.inkscape.org/) -->

<svg
   width="210mm"
   height="297mm"
   viewBox="0 0 210 297"
   version="1.1"
   id="svg1"
   xml:space="preserve"
   inkscape:version="1.4.3 (0d15f75, 2025-12-25)"
   sodipodi:docname="Freedom.svg"
   inkscape:export-filename="Freedom2.svg"
   inkscape:export-xdpi="96"
   inkscape:export-ydpi="96"
   xmlns:inkscape="http://www.inkscape.org/namespaces/inkscape"
   xmlns:sodipodi="http://sodipodi.sourceforge.net/DTD/sodipodi-0.dtd"
   xmlns="http://www.w3.org/2000/svg"
   xmlns:svg="http://www.w3.org/2000/svg"><sodipodi:namedview
     id="namedview1"
     pagecolor="#505050"
     bordercolor="#eeeeee"
     borderopacity="1"
     inkscape:showpageshadow="0"
     inkscape:pageopacity="0"
     inkscape:pagecheckerboard="0"
     inkscape:deskcolor="#505050"
     inkscape:document-units="mm"
     inkscape:zoom="1.0396254"
     inkscape:cx="366.47815"
     inkscape:cy="476.61397"
     inkscape:window-width="3440"
     inkscape:window-height="1369"
     inkscape:window-x="1912"
     inkscape:window-y="1072"
     inkscape:window-maximized="1"
     inkscape:current-layer="g63"><inkscape:page
       x="0"
       y="0"
       width="210"
       height="297"
       id="page2"
       margin="0"
       bleed="0" /></sodipodi:namedview><defs
     id="defs1" /><g
     inkscape:label="Laag 1"
     inkscape:groupmode="layer"
     id="layer1"><g
       id="g63"
       style="display:inline"
       transform="matrix(0.87164086,0,0,0.87164086,-200.32223,-664.41898)"><path
         id="path52-5"
         style="display:inline;fill:#000000;stroke:none;stroke-width:1.50815;stroke-dasharray:none"
         d="m 350.14689,846.91054 c -5.84171,5e-5 -24.94255,9.95666 -32.48615,21.3149 -7.60658,7.29817 -17.44814,46.6628 -19.32,51.71561 -10.79974,23.67018 -24.12682,34.27339 -16.87878,57.95606 -2.48156,1.42427 -29.08515,14.03852 -39.34319,19.33469 14.735,9.6473 19.2719,12.6111 34.36977,22.4902 54.57863,9.7115 93.27468,6.6754 147.5714,0.027 17.79748,-11.3315 18.67523,-11.8976 34.63035,-22.17268 -23.74244,-11.88178 -24.28689,-12.13924 -40.04568,-19.33469 3.20504,-13.29176 3.80058,-16.15192 -2.61873,-28.66749 -16.39716,-30.03568 -18.26745,-102.66309 -65.87899,-102.66309 z"
         inkscape:label="black -background"
         sodipodi:nodetypes="cccccccccccc" /><path
         id="path50"
         style="display:inline;fill:#333333;stroke-width:1.50753"
         d="m 343.99626,827.89787 c -15.35211,1.00161 -30.3336,6.52213 -41.91414,16.74462 -3.84083,3.9469 -14.90087,12.08628 -1.42884,9.30895 15.94542,-24.32999 68.11641,-35.0223 98.80001,0.21505 12.43422,-1.18619 -7.45662,-13.0731 -11.316,-15.89881 -13.06715,-7.8522 -28.78891,-11.37143 -44.14103,-10.36981 z m 5.81571,24.88756 -1.29505,0.27239 c -1.86166,0.38706 -9.71825,4.11667 -12.06625,5.72969 -5.4959,4.05473 -11.49722,8.46088 -15.23455,14.33137 -2.81134,6.56422 -10.70441,23.45704 -18.8425,50.73088 8.2016,-9.87315 17.17963,-20.73213 28.21833,-27.73091 -6.6341,11.43465 -18.07376,18.25874 -32.14165,40.92016 -7.7632,12.66687 -11.51357,22.02497 -12.27652,24.61519 -0.537,1.82305 -2.15155,8.69823 1.93537,14.56552 4.97422,7.29733 11.97452,12.2776 19.11487,17.09348 12.93264,8.7398 32.27254,18.5932 33.4128,18.6322 0.54096,0.017 -19.62332,-21.13334 -28.45249,-32.05562 -9.53461,-11.91438 -8.47128,-14.15934 -9.07,-14.15934 h -0.004 -0.004 -0.004 l -0.004,0.004 c -10e-4,0.001 -0.0121,0.007 -0.0151,0.009 l -0.004,0.004 c -0.45569,0.65265 1.54269,14.73002 10.58964,23.58775 0.53511,0.42963 0.73141,0.70947 0.64036,0.83149 -0.18983,0.20994 -1.35645,-0.0895 -3.28776,-0.89362 -16.07634,-6.69258 -17.84052,-22.78931 -16.84499,-29.00682 1.41685,-8.84878 7.63973,-21.33892 17.88195,-32.23245 10.46631,-11.13182 17.48256,-18.19468 27.82171,-23.4014 7.09313,-3.57203 13.50979,-5.00485 19.51151,-2.65218 7.66001,3.0027 13.24927,6.96588 14.7519,8.49658 30.757,34.51284 49.87615,56.65921 14.96694,80.85591 8.01099,-4.6032 30.10172,-22.29438 17.80551,-40.28938 -27.77934,-40.65395 -28.71278,-43.24987 -38.88921,-52.33653 -8.86777,-6.40937 -11.93199,-8.77056 -18.52231,-13.05546 0.34966,-3.14548 0.52017,-4.34126 0.60211,-6.68542 -1.96127,1.45075 -5.9925,2.5873 -14.63242,9.69124 -0.37173,0.30562 -0.60358,0.43423 -0.69292,0.4253 -0.003,-6e-4 -0.007,9.2e-4 -0.009,0 l -0.0151,-0.0151 -0.004,-0.004 c -0.27298,-0.68637 10.25233,-13.36872 14.16891,-18.95717 1.73962,-2.48219 1.74163,-2.48671 1.49573,-5.18491 -0.34942,-3.83417 -0.54744,-6.51302 -0.60212,-12.13794 z m -58.2717,4.8743 c -6.5682,9.08171 -14.26735,18.97379 -14.50341,30.65548 0.9915,0.2314 1.96611,0.53923 3.00104,0.54954 -0.57354,-11.63369 12.72498,-22.81353 11.50237,-31.20502 z m 115.08111,1.51963 c -0.40792,-0.0105 -0.71171,0.22855 -0.84585,0.66901 -0.0563,0.25405 -0.0758,0.51069 -0.0669,0.77417 0.0758,1.06583 0.73194,2.65177 2.28902,4.52544 4.86337,5.33373 8.88161,14.78932 9.46186,21.3561 1.13615,2.49317 0.18841,1.04351 2.96759,1.91624 2.51627,-7.50614 -5.25198,-16.47098 -10.30292,-25.12649 -1.2228,-2.88431 -2.61257,-4.09178 -3.50279,-4.11447 z M 275.5937,893.3902 c -8.40821,5.03505 -7.68474,15.50589 -7.88489,24.00828 2.48482,-0.55321 5.04368,0.4584 7.24931,0.88885 -3.05259,-8.0698 9.74091,-23.0883 0.63558,-24.89713 z m 145.08665,0.74548 c -2.38339,0.0225 -3.46242,2.09685 -0.25804,7.23498 2.26633,2.21519 1.2153,10.61611 2.37023,14.59899 0.11261,0.34702 0.22171,0.62477 0.32496,0.84105 0.023,0.0482 0.0443,0.0976 0.0669,0.13854 0.0322,0.0586 0.0645,0.11442 0.0956,0.15769 -3.6e-4,0.0105 2.5e-4,0.0229 0,0.0335 0.6024,0.99201 1.55111,1.29545 3.0775,0.46831 8.58164,0.95868 3.85163,-8.53769 3.85163,-13.59545 0.22785,-5.56123 -6.04533,-9.91062 -9.52875,-9.87761 z m -39.64902,35.58711 c -5.04094,0.0864 -21.17527,11.68832 -21.23662,14.33616 -0.032,1.35746 11.17883,2.01989 18.24513,-5.17535 2.30822,-2.35032 4.47767,-6.17316 4.47767,-7.89444 0,-0.9039 -0.55267,-1.28236 -1.48618,-1.26637 z m -59.49982,0.16726 c -0.97485,0.0407 -1.58118,0.36809 -1.5292,1.07043 0.70425,9.51418 18.82936,17.24545 22.65591,13.29917 0.84323,-0.8696 -6.78436,-8.17742 -13.01245,-11.82732 -2.39817,-1.40542 -5.62856,-2.46714 -7.67462,-2.54228 -0.15345,-0.006 -0.30037,-0.006 -0.43964,0 z m -38.99435,22.49343 c -3.15916,7.14267 0,0 0,0 z m 102.66599,33.14518 -0.004,0.004 -0.004,0.004 h -0.004 l -0.004,0.004 c -8.51343,8.33883 -18.62716,17.08114 -26.99499,28.57194 v 0 0 h 0.004 v 0 h 0.004 0.004 0.004 0.004 c 0.1573,-8e-4 0.93891,-0.4459 1.86848,-1.0704 9.96174,-5.8797 18.10526,-14.23117 23.79325,-24.32847 0.7266,-1.3356 1.35524,-2.99386 1.34282,-3.19696 l -0.004,-0.004 -0.004,-0.004 z m -100.85006,1.44318 c -7.63257,2.62397 -14.36578,5.28025 -22.39786,8.8932 -1.21736,0.5476 35.24893,15.12646 34.27774,14.40306 -26.4213,-19.67965 -20.25969,-19.30215 29.24576,3.1874 0,0 -6.89906,-4.0177 -41.12564,-26.48366 z"
         inkscape:label="Grey"
         sodipodi:nodetypes="sccccscccccccsccccscccccccccssssccscccsccccssccccccsccccccssccccsccscccccssscsssccssccccccccsccccccccscccccccsccc" /><path
         id="path61"
         style="display:inline;fill:#040405;stroke-width:1.03173"
         d="m 351.23293,822.70687 c -2.33721,-0.0465 -4.677,0 -7.00979,0.15187 -11.19859,0.70654 -22.24119,3.63809 -32.12285,8.76188 -8.60032,5.4916 -21.72163,12.95349 -23.06267,23.4264 -7.03806,6.88886 -10.92602,16.32869 -14.3234,25.39906 -2.62979,12.14318 -15.36036,20.79363 -14.73163,34.03229 0.51897,10.89963 6.70125,22.73163 16.85607,27.2499 0.45616,0.2052 -1.25648,0.99263 4.38637,1.6752 0.86842,-0.97466 2.28788,-0.86199 7.82519,-11.61554 5.98384,-14.04837 14.29962,-32.25048 15.80189,-44.91406 -1.3874,-1.37891 -2.29986,-3.80873 -4.36289,-3.7883 -7.56063,0 -8.52374,-1.96423 -12.65677,0.72355 -5.07694,-2.66931 5.96246,-15.62723 8.72522,-19.91376 7.57858,0.99189 13.52415,-11.28416 19.51289,-15.52828 25.42172,-18.79291 61.58178,-15.07031 80.60346,14.77386 1.39711,2.22855 2.50321,-2.71087 13.66919,14.76853 7.65279,12.23572 -7.7052,-5.14164 -14.12237,8.08227 -0.0426,0.11201 -0.0855,0.22369 -0.12769,0.33572 v 8.4e-4 c 4.96316,23.95155 18.50846,51.01562 21.63379,58.30552 0.0154,0.0361 0.20259,0.33615 0.21207,0.37039 6.66192,-0.64256 2.1784,-1.01915 3.19029,-1.68956 5.75851,-3.49551 13.63375,-13.56603 16.52652,-22.43624 3.52131,-12.15174 -4.20597,-23.71476 -11.75101,-32.46023 -2.94622,-11.26415 -7.42924,-22.45947 -14.86328,-31.51517 -1.90808,-6.70039 -7.46402,-13.66385 -14.18317,-18.87926 -13.01531,-9.92176 -29.26309,-14.99261 -45.62517,-15.31668 z m -7.23726,5.19147 c 15.35212,-1.0016 31.07551,2.51598 44.14266,10.36818 3.85939,2.8257 23.7482,14.71559 11.31398,15.90176 -30.6836,-35.23734 -82.85147,-24.54655 -98.79688,-0.21656 -13.47205,2.77732 -2.41363,-5.3618 1.42719,-9.30869 11.58054,-10.2225 26.56094,-15.74309 41.91305,-16.74469 z m -52.45344,29.76319 c 1.2226,8.39148 -12.07682,19.5675 -11.50329,31.20121 -1.03492,-0.0105 -2.0117,-0.31777 -3.00318,-0.54919 0.23605,-11.68168 7.93826,-21.57031 14.50647,-30.65202 z m 115.07879,1.51675 c 0.89023,0.0227 2.27974,1.23208 3.50255,4.1164 5.05095,8.65551 12.81829,17.61784 10.302,25.124 -2.77917,-0.87273 -1.8281,0.57912 -2.96423,-1.91406 -0.58025,-6.56676 -4.6004,-16.02124 -9.46377,-21.355 -2.91201,-3.50406 -2.67768,-6.00447 -1.37655,-5.97134 z m -112.67001,25.5595 c 2.73911,-0.0846 4.80121,1.70441 4.80121,6.10216 -9.82929,-4.57489 -11.52026,16.94466 -12.45603,25.14971 0.38132,8.18668 -1.77678,7.98323 -2.23506,-0.10357 -0.68848,-8.5254 2.50317,-14.89479 2.6534,-22.42541 -7.23368,11.89546 -7.56667,23.94206 -6.15051,37.62756 0.0499,1.49757 0.62721,3.00152 0.43859,4.51609 -3.62158,-12.16554 -3.03538,-26.63414 0.0202,-38.22359 1.91676,-7.15329 8.36297,-12.50128 12.92815,-12.64294 z m 110.13422,1.16544 c 3.38218,-0.12859 7.77332,1.20218 9.44039,3.44258 7.29456,11.79764 6.95632,27.1916 4.80122,40.56604 -0.45273,1.72959 -0.69241,3.53925 -1.38903,5.1962 1.43214,-12.8303 1.58163,-27.1725 -3.7612,-39.59155 -5.84795,-12.41948 -1.82721,2.52918 -0.43314,7.44063 1.62819,4.05533 1.77937,21.53566 -0.34588,16.95424 -1.72382,-8.67511 0.098,-31.17201 -11.7004,-28.69431 -2.3674,-3.59713 0.006,-5.18527 3.38804,-5.31383 z m -128.48992,7.48727 c 9.10534,1.80884 -3.68828,16.82755 -0.6357,24.89735 -2.20564,-0.43044 -4.76802,-1.44051 -7.25283,-0.8873 0.20015,-8.50239 -0.51967,-18.97499 7.88853,-24.01005 z m 145.08345,0.74482 c 3.48342,-0.0331 9.75703,4.31459 9.5292,9.87583 0,5.05775 4.72928,14.55835 -3.85234,13.59966 -6.39787,3.46693 -2.61893,-13.00269 -5.93316,-16.24214 -3.20438,-5.13812 -2.1271,-7.21087 0.2563,-7.23335 z"
         inkscape:label="headset black" /><path
         style="display:inline;fill:#4e4a4e;stroke-width:1.03173"
         d="m 279.70176,932.11261 c -3.206,-13.10773 -2.70726,-26.54285 2.10875,-39.32413 1.60188,-5.24008 6.92272,-8.10014 11.5847,-9.02167 4.84552,-1.69215 9.23255,8.51456 2.84396,7.30197 -4.73069,3.11192 -5.43092,9.42033 -6.81737,14.48944 -1.32722,5.78079 -2.21772,12.02462 -3.68692,17.69057 -3.86033,-7.99333 -1.6819,-16.45704 0.25962,-24.53828 0.14819,-2.58944 2.24908,-7.74749 -0.57622,-1.64974 -3.00183,6.60928 -3.48829,9.97953 -4.63156,17.10621 0.0166,7.12215 1.49844,14.82248 0.24942,21.92275 -0.78596,-1.99144 -0.83693,-2.20202 -1.33438,-3.97712 z m 137.38954,2.55591 c -0.003,-5.19302 0.36521,-9.3021 0.57367,-15.90693 -1.59559,-9.43209 -2.20347,-15.97708 -5.36263,-24.61681 -1.42018,-2.33769 -2.09608,-4.40932 -1.37767,-0.17106 2.94403,8.88238 4.61648,16.70559 3.39521,26.0956 -1.36983,5.75222 -2.63318,-2.39022 -2.85861,-4.181 -0.65845,-7.17785 -1.21229,-13.74008 -3.41421,-20.58944 -0.89658,-3.93328 -5.95,-4.93643 -8.09074,-3.583 -3.77159,-6.7562 7.72973,-8.27108 10.75179,-5.52967 5.20209,1.48498 7.63729,9.2473 8.82512,13.81633 2.53691,11.5395 1.60184,23.79762 -2.37228,34.97684 l -0.0692,-0.31086 z"
         id="path59"
         inkscape:label="light grey" /><path
         id="path52"
         style="display:inline;fill:#dd0303;stroke-width:1.50753"
         d="m 350.98753,842.67367 c -36.94809,4.94384 -47.98604,47.21395 -56.47489,76.7701 -10.79974,23.67019 -25.5129,33.58246 -16.80197,56.43188 -5.40618,2.77951 -29.88582,15.35893 -40.76213,20.87911 9.5656,6.44484 9.81083,6.69714 33.43503,22.43004 l 6.10497,0.5372 c -5.07818,-3.3579 -19.18378,-12.5233 -34.36977,-22.4902 5.45669,-2.62925 38.33443,-17.97106 39.34319,-19.33469 0.27155,-0.36708 -1.75926,-5.60885 -1.82548,-11.96591 -0.0928,-8.91519 4.02393,-15.64484 8.26241,-23.41095 27.17068,-49.7846 13.44962,-77.40134 59.09841,-94.85755 1.90221,-0.72742 3.18161,-0.99893 5.30915,-0.50177 33.35349,10.94924 33.16329,21.79298 46.24366,61.73148 7.34195,22.41731 15.46331,36.72126 17.24235,40.13655 5.45023,10.46307 6.52359,15.14302 2.85215,29.21221 13.92763,6.42669 31.46265,15.04193 40.04568,19.33469 -26.86303,17.27584 -28.08727,18.17344 -34.63035,22.17254 1.07014,-0.1724 3.21182,-0.3879 8.65578,-1.0643 4.16674,-2.7883 22.71302,-15.0323 32.55007,-21.45179 -23.95481,-11.76393 -26.05588,-12.74225 -41.71322,-20.20003 1.93605,-6.73481 1.36256,-14.47381 0.2292,-18.30211 -1.21295,-3.64536 -2.42935,-7.00949 -4.14793,-10.47494 -11.29458,-23.549 -14.98187,-37.04927 -23.56372,-62.36927 -4.35578,-12.85131 -8.62638,-19.98163 -14.3814,-25.93257 -6.49189,-6.71289 -16.15977,-13.01419 -30.58648,-17.26961 -0.0214,-0.006 -0.0606,-0.009 -0.11471,-0.009 z m -1.48565,42.97876 c 12.76778,9.3783 20.81572,12.6 31.07461,26.98534 -6.56138,-11.10468 -12.6715,-18.05612 -31.07461,-26.98534 z m 4.33854,14.73382 c -1.3311,-0.0105 -2.66587,0.0238 -3.31643,0.0238 -5.53141,0 -13.58352,4.80933 -22.61767,11.84167 -3.07757,2.39562 -10.31896,9.40055 -15.34925,14.92395 -32.20173,32.20172 -16.82262,58.1815 1.32518,63.04418 -50.83258,-27.09616 18.39918,-81.20882 26.68767,-85.61886 20.86558,-10.02807 39.28834,11.10117 51.82042,27.22436 16.39687,22.49817 25.67081,37.40983 -3.28244,59.50843 20.45082,-13.98272 23.54103,-26.05369 20.45082,-35.09227 -2.50741,-7.5628 -31.46351,-52.27822 -52.44002,-55.61641 -0.63684,-0.10129 -1.94711,-0.22827 -3.2782,-0.23893 z m 27.53498,29.71406 c -3.84756,-0.081 -18.57631,9.5657 -21.09327,13.92519 -0.003,0.006 -0.003,0.0135 -0.004,0.0191 -10e-4,0.007 -0.006,0.0252 -0.004,0.0335 0.18453,0.69059 10.26215,1.79456 17.52356,-5.46685 2.92497,-2.92495 5.14164,-7.43596 4.30563,-8.27196 -0.15579,-0.15579 -0.40031,-0.23207 -0.72637,-0.23894 z m -59.12231,0.16248 c -1.29628,0.009 -1.9594,0.42841 -1.95926,0.80761 5.7e-4,1.73455 1.65266,5.43086 4.66401,7.72718 4.46588,3.4055 11.60396,7.56951 17.18427,5.49552 0.62422,-0.23198 -0.41222,-1.43763 -2.35113,-3.36898 -8.75471,-8.7206 -14.68607,-10.68247 -17.53789,-10.66133 z m -19.13876,35.46765 c 4.31453,11.90407 24.8883,31.24754 37.52249,46.21496 -12.2274,-15.92129 -22.67804,-25.24149 -37.52249,-46.21496 z m 82.07073,19.81179 c -7.90172,6.26875 -25.56551,23.72157 -26.99499,28.57197 6.37223,-7.9359 20.06301,-21.92003 26.99499,-28.57197 z m 15.39601,21.18007 c -8.55153,5.587 -12.04626,8.4419 -18.17825,16.8212 6.68979,-7.8256 10.11766,-11.1329 18.17825,-16.8212 z"
         sodipodi:nodetypes="cccccccsscscssccccccccsscccccccssccccccsccscccssssccssscccccccccc"
         inkscape:label="red" /><path
         id="path51"
         style="display:inline;fill:#ffffff;stroke-width:1.50753"
         d="m 351.68523,822.11563 c 0,0 -4.7896,-0.003 -7.17764,0.15293 -11.46393,0.72261 -22.7666,3.72408 -32.88237,8.96487 -8.80406,5.61695 -21.83742,13.04772 -23.21023,23.75979 -7.20481,7.04611 -11.08766,16.20268 -14.56554,25.48012 -2.69209,12.4205 -14.68021,19.23478 -14.68021,33.91457 -0.0674,2.47275 2.0837,20.88814 16.18551,27.14311 -0.93396,1.20117 1.48817,1.89604 3.80864,2.67609 -0.48327,0.75619 -1.20032,2.03821 -2.39891,4.1527 -6.1927,10.92472 -3.62833,22.00917 -2.94848,25.28898 -6.56144,4.02435 -15.22234,8.58807 -42.61182,23.39182 5.96979,4.28859 26.23999,17.67769 32.32737,21.39849 3.55924,0.2472 3.60004,0.3372 6.68475,0.5592 -22.98973,-15.2614 -21.06496,-14.1296 -33.26776,-22.24354 13.61584,-6.86233 27.19871,-13.91426 40.76213,-20.87911 0.11441,-0.18515 -0.51749,-1.40553 -0.85869,-2.44264 -3.35069,-11.08971 -1.89894,-17.5871 3.54527,-28.61869 0.40693,-0.74868 0.75171,-1.36674 0.78775,-1.41467 -5.59691,-0.68151 -3.88872,-1.4678 -4.34387,-1.67255 -10.15481,-4.51827 -16.34036,-16.34862 -16.85931,-27.24825 -0.62875,-13.23866 12.103,-21.89086 14.73279,-34.03402 3.39739,-9.07037 7.28375,-18.51002 14.32182,-25.39889 1.34104,-10.47291 14.46178,-17.93369 23.0621,-23.42529 9.88164,-5.12379 20.92392,-8.05285 32.12254,-8.75939 2.33278,-0.15187 4.67314,-0.19935 7.01038,-0.15291 16.36206,0.32405 32.61188,5.39403 45.62719,15.31579 6.71915,5.2154 12.27515,12.18035 14.18324,18.88072 7.43404,9.05571 11.9156,20.25151 14.86182,31.51563 7.54504,8.74547 15.27216,20.30533 11.75085,32.45706 -2.89277,8.87021 -10.76629,18.94058 -16.52481,22.43609 -1.01113,0.66992 3.59028,0.9951 -3.05022,1.63679 6.86229,14.42868 7.82418,23.40093 5.47305,32.08185 18.65816,9.11793 25.30428,12.15895 41.71322,20.20003 -17.82239,11.62109 -21.12412,13.79939 -32.55007,21.45179 1.36416,-0.1404 1.48137,-0.1544 3.74881,-0.4185 5.55118,-3.5611 29.20089,-18.87886 32.99718,-21.40642 l 0.0151,-0.0151 c 5.7e-4,-10e-4 0.004,-0.0121 0.004,-0.0151 0.0489,-0.69354 -14.63527,-7.8944 -19.48761,-10.32681 -4.2071,-2.10895 -20.30418,-9.87498 -23.26759,-11.13442 2.16129,-12.17026 1.73412,-15.69326 -4.95074,-29.90522 2.51684,-0.69813 -0.15223,-1.66413 0.68335,-2.21731 5.89493,-3.57537 12.75932,-13.73612 16.2142,-22.52689 3.60473,-12.42917 -4.31855,-23.64575 -12.04238,-32.59087 -2.31799,-10.02552 -6.21306,-21.07781 -14.32181,-31.13811 -1.4547,-4.95873 -4.94771,-11.08429 -13.12236,-18.51276 -13.32366,-10.14832 -30.75074,-16.03074 -47.50045,-16.36233 z m -3.95679,14.7997 c -11.08324,0.52469 -22.12587,4.40247 -31.659,11.44979 -5.98875,4.24415 -11.93293,16.52275 -19.51152,15.53086 -2.76277,4.28652 -13.80288,17.2436 -8.72593,19.9129 4.13303,-2.68776 5.09818,-0.72158 12.65883,-0.72158 2.06302,-0.0206 2.97556,2.40584 4.36296,3.78475 8.95272,-21.33929 20.64187,-40.09719 46.13375,-44.19838 35.90425,10.68226 40.20513,31.96857 45.23536,43.31909 6.41717,-13.22391 21.77389,4.15013 14.1211,-8.08559 -11.16598,-17.47939 -12.27479,-12.5377 -13.6719,-14.76624 -11.88856,-18.65261 -30.47157,-27.10009 -48.94364,-26.2256 z m 0.3345,1.18033 c 15.23276,-0.82211 33.50668,4.61564 48.68082,26.64137 1.43021,2.2794 1.83176,-3.87174 12.76873,12.87864 5.41478,8.66138 -3.22665,0.0806 -7.87055,1.68688 -2.04872,0.64816 -3.32464,1.57557 -4.10492,2.56618 -2.05896,-5.40272 -4.42184,-10.20125 -7.0295,-14.21192 -13.88285,-21.35235 -37.23459,-27.82841 -40.31803,-27.21958 -8.62996,1.70399 -29.5682,8.75232 -38.5356,27.9603 -6.67116,14.28947 -8.01704,12.76558 -9.09868,14.67543 -0.46142,-0.62205 -0.99585,-1.00321 -1.85891,-0.95574 -7.43033,0.42384 -9.19783,-1.67756 -12.99334,1.27113 -3.48957,-2.97953 6.15122,-14.53752 9.20381,-18.84726 7.75815,1.01462 15.40573,-12.46235 20.72052,-15.53083 3.01084,-3.01086 15.20291,-10.09247 30.43565,-10.9146 z"
         sodipodi:nodetypes="ccccccccccccccccccccccccccccccccccccccscccccccccscccccccccsssccccssscccccs"
         inkscape:label="white" /></g></g></svg>
