<svg xmlns="http://www.w3.org/2000/svg" width="234" height="234"><defs><linearGradient id="a" x1="59.31%" x2="32.946%" y1="65.268%" y2="22.369%"><stop offset="47%" stop-color="#FFF"/><stop offset="58%" stop-color="#FFF"/></linearGradient><linearGradient id="b" x1="59.31%" x2="32.946%" y1="65.19%" y2="22.28%"><stop offset="47%" stop-color="#FFF"/><stop offset="58%" stop-color="#FFF"/></linearGradient><linearGradient id="c" x1="59.311%" x2="32.949%" y1="64.873%" y2="22.072%"><stop offset="47%" stop-color="#FFF"/><stop offset="58%" stop-color="#FFF"/></linearGradient><linearGradient id="d" x1="59.311%" x2="32.949%" y1="65.272%" y2="22.318%"><stop offset="47%" stop-color="#FFF"/><stop offset="58%" stop-color="#FFF"/></linearGradient><linearGradient id="e" x1="59.388%" x2="32.947%" y1="65.21%" y2="22.213%"><stop offset="47%" stop-color="#FFF"/><stop offset="58%" stop-color="#FFF"/></linearGradient></defs><g fill="none"><path fill="#A6A9AC" d="M143.275 164.503a10.33 10.33 0 0 1-9.88 2c-18.16-5.87-64.46-19.37-95.78-30.37-1-.35-2.36-3.27-2.36-3.27v3a3.06 3.06 0 0 0 2.36 2.89c31.39 10.76 77.51 25.9 95.78 31.37 3.46 1 7.18 2.71 11.38.31 3.33-2 5.8-4 27.11-20.42 12.91-9.94 14.86-10.85 18.47-11.18a17.86 17.86 0 0 1 8.34 1.76c.41.2 11-26.47 4.16-24.19-.95.17-1.37-1.81-2.29-1-18.05 15.2-37.18 28.99-57.29 49.1"/><path fill="#3F464C" d="M200.235 115.028c.647-.57 1.21-.377 1.802.264l.167.186c.319.357.456.452.493.45 2.029-.675 2.997.682 2.953 3.33-.037 2.06-.637 5.016-1.676 8.6a112 112 0 0 1-3.028 8.9 67 67 0 0 1-1.218 2.964c-.161.362-.297.647-.403.844q-.088.164-.156.26a.8.8 0 0 1-.12.135c-.147.128-.333.199-.571.083a17.34 17.34 0 0 0-8.078-1.713q-.187.017-.372.038l-.244.03c-3.4.454-6.134 2.187-17.594 11.01-6.302 4.857-10.96 8.447-14.438 11.123l-.845.65c-7.936 6.104-9.206 7.038-10.365 7.76l-.24.148c-.244.148-.502.302-.832.506-.142.087-.287.176-.447.271-3.142 1.796-5.604 1.65-10.23.206a62 62 0 0 0-1.541-.47c-11.791-3.53-35.732-11.264-59.886-19.282l-4.391-1.46-2.192-.73-2.188-.73A3713 3713 0 0 1 37.5 139.24a3.564 3.564 0 0 1-2.746-3.377v-5.258l.953 2.047a17 17 0 0 0 .867 1.6c.265.428.519.783.75 1.038.19.208.351.335.456.371 7.27 2.554 15.679 5.36 25.265 8.445a1909 1909 0 0 0 10.977 3.495c5.44 1.715 16.515 5.132 27.698 8.578l1.525.47c13.723 4.228 27.23 8.385 30.301 9.378a9.83 9.83 0 0 0 9.402-1.903l-.017.014 1.066-1.06c6.827-6.764 13.868-13.147 21.851-19.909l1.269-1.07c3.536-2.977 7.164-5.956 11.708-9.632l5.529-4.459.653-.526c2.176-1.754 4.295-3.463 5.258-4.243a676 676 0 0 0 9.969-8.211m1.067.942c-.271-.294-.285-.299-.415-.184a676 676 0 0 1-9.992 8.23c-1.012.82-3.297 2.663-5.585 4.507l-.653.526c-2.277 1.836-4.434 3.575-5.202 4.196a770 770 0 0 0-11.694 9.618c-8.914 7.503-16.632 14.493-24.132 21.994l-.028.026a10.83 10.83 0 0 1-10.36 2.096c-5.68-1.836-47.15-14.525-59.519-18.424a1910 1910 0 0 1-10.983-3.497c-9.593-3.088-18.01-5.896-25.29-8.453-.292-.102-.573-.322-.864-.643a8 8 0 0 1-.86-1.184l.029.046v1.025c.033 1.102.766 2.053 1.85 2.384l.173.047c9.65 3.308 20.521 6.973 31.495 10.627l4.393 1.46 2.195.728 2.192.726c22.628 7.487 44.418 14.51 55.482 17.822.412.12.508.149 1.556.476 4.383 1.367 6.604 1.499 9.428-.114l.428-.26c.351-.217.62-.377.877-.535l.119-.073q.147-.091.3-.19l.127-.082c1.094-.718 2.812-2.004 9.574-7.203l.82-.63c3.511-2.702 8.277-6.376 14.817-11.415 10.644-8.196 13.906-10.382 17.192-11.06l.256-.05c.3-.054.6-.097.91-.133l.266-.028.134-.012a18.36 18.36 0 0 1 8.576 1.81l-.401-.187.034-.066q.086-.175.194-.413l.075-.164a66 66 0 0 0 1.198-2.917 111 111 0 0 0 3-8.818c1.016-3.505 1.6-6.388 1.634-8.338.036-2.066-.457-2.756-1.705-2.346-.587.105-.936-.137-1.485-.751z"/><path fill="#FFF" d="M145.125 163.673c-2.44 2.21-121.49-36.9-121.49-36.9s-.13 2.39-.13 3.09a2.82 2.82 0 0 0 2.12 2.9c31.54 10.76 91.56 29.78 109.78 35.65 2.95.82 5.86 1.9 11.9-3.2 14.71-12.6 27-23.91 41-33.67 4.87-2.54 5.84 10.46 12.64 9.56 9.23-1.16 13.17-25.82 5.17-27.69-6.07-1.47-5.56 1.24-6.47 2-18.13 15.32-34.33 28.07-54.52 48.26"/><path fill="#3F464C" d="M193.766 136.45c-.005-.01-.257-.428-.542-.897l-.157-.259c-.237-.389-.47-.768-.58-.942-1.528-2.395-2.556-3.093-3.896-2.399-5.373 3.746-10.732 7.88-16.77 12.877-5.032 4.164-23.506 20.158-24.231 20.796l-.276.232c-4.759 3.944-7.364 4.353-11.687 3.137l-.245-.07-.13-.036c1.41.455-14.9-4.764-31.966-10.238l-1.709-.548a14249 14249 0 0 1-30.92-9.952c-18.874-6.113-34.095-11.128-45.155-14.903-1.543-.393-2.59-1.825-2.497-3.385 0-.27.018-.782.049-1.472l.017-.359a206 206 0 0 1 .065-1.286.5.5 0 0 1 .655-.448l.323.106.943.31 3.588 1.173a6539 6539 0 0 0 52.494 16.905l3.41 1.078c16.699 5.272 30.683 9.572 41.06 12.594 11.411 3.323 18.844 5.144 19.18 4.839l.79-.788c11.264-11.22 21.335-20.266 35.41-32.122l1.013-.852a2187 2187 0 0 1 3.64-3.05c1.232-1.031 5.78-4.828 6.783-5.667a1687 1687 0 0 0 6.9-5.795c.077-.065.156-.18.272-.402l.14-.274c.063-.12.116-.218.172-.314.915-1.548 2.636-2.005 6.32-1.113 8.762 2.049 4.338 27.472-5.218 28.673-2.983.395-4.86-1.25-7.25-5.157zm1.041-.219c2.101 3.364 3.696 4.691 6.076 4.376 8.54-1.073 12.693-24.936 5.114-26.708-3.302-.8-4.57-.463-5.227.649-.045.077-.09.159-.144.264l-.143.278c-.173.331-.312.535-.515.705a1645 1645 0 0 1-6.902 5.796l-3.023 2.525-.848.71-2.912 2.432a1956 1956 0 0 0-3.638 3.049c-14.928 12.546-25.326 21.879-37.166 33.72l-.018.017c-1.3 1.177-22.475-4.99-61.213-17.22l-3.411-1.079a6540 6540 0 0 1-56.091-18.081l-.616-.202-.03-.01-.009.177-.022.45-.016.357a42 42 0 0 0-.049 1.457c-.066 1.11.666 2.111 1.782 2.397 11.093 3.784 26.31 8.798 45.179 14.91l2.511.813c6.673 2.159 17.578 5.664 28.406 9.137l1.709.548c15.927 5.11 31.192 9.994 32 10.251l.007.001-.06-.019.113.032.074.02.1.029.073.02c4.112 1.157 6.391.762 11.082-3.199l-.055.045.016-.012c.709-.625 18.814-16.3 24.078-20.67l.164-.136c6.059-5.014 11.439-9.164 16.89-12.96 2.027-1.057 3.481-.07 5.256 2.714.292.457 1.378 2.258 1.286 2.106z"/><path fill="#FFF" d="M98.175 88.083c-4.48-1.08-8.77-1.94-10.84-2.42a5.6 5.6 0 0 0-3.22.16c-18.11 6.49-48.27 26.34-59.6 38.96a3.5 3.5 0 0 0 1.49 5.62c31.32 11 94.14 30.52 109.64 35.44 3 .74 5.13 1 9-1.66 3.76-2.47 41.75-37.71 57.67-49.46.52-.38 0 0 1-.69a3.4 3.4 0 0 1 2.29-.74c.39.09-4.67-1-12.9-2.94"/><path fill="#3F464C" d="M86.95 86.09c-.89-.17-1.81-.1-2.666.204-17.883 6.409-48.026 26.158-59.393 38.82a3 3 0 0 0 1.28 4.817c10.561 3.71 25.29 8.597 43.502 14.471l4.098 1.32c11.54 3.71 23.622 7.547 37.406 11.892 1.74.549 6.413 2.019 11.25 3.541l.969.305.484.152.966.304c4.975 1.566 9.633 3.033 10.919 3.442 3.578.882 5.324.663 8.605-1.593.949-.623 4.087-3.331 10.548-9.063l4.274-3.797.53-.473 2.265-2.013.44-.392 1.718-1.526a2508 2508 0 0 1 12.335-10.896c11.48-10.054 19.958-17.165 25.54-21.285a9 9 0 0 1 .466-.326q.173-.115.516-.351.172-.137.356-.254l.093-.055-.11-.024-.695-.155-.368-.083a935 935 0 0 1-9.688-2.232.5.5 0 1 1 .23-.973c3.6.848 6.875 1.601 9.677 2.23a489 489 0 0 0 3.215.709l.034.007.033.01c.01.003.018.005.04.038l.034.056c.045.074.122.21.266.465l-.48.416h-.04l-.06-.007-.17-.001a2.9 2.9 0 0 0-1.593.523l-.177.132a51 51 0 0 1-.716.484 10 10 0 0 0-.271.197c-5.55 4.096-14.014 11.195-25.473 21.232l-1.88 1.649a2507 2507 0 0 0-10.45 9.242c-.853.757-7.51 6.677-9.228 8.201-6.546 5.807-9.65 8.486-10.653 9.145-3.527 2.424-5.564 2.68-9.434 1.725-2.768-.879-20.787-6.545-24.617-7.752a6827 6827 0 0 1-41.511-13.214c-18.22-5.877-32.955-10.766-43.524-14.478a4 4 0 0 1-1.7-6.427c11.485-12.792 41.769-32.633 59.806-39.097a6.1 6.1 0 0 1 3.5-.176c-.158-.036 2.86.617 5.907 1.295l.537.12c1.698.378 3.348.753 4.4 1.006a.5.5 0 0 1-.234.972c-.955-.23-2.406-.56-3.94-.904l-.544-.121c-3.185-.71-6.512-1.43-6.359-1.395z"/><path fill="#B7191F" d="M192.235 109.823c-12.64-2.95-27.83-6.58-42.53-10.08-21.79-5.2-42.36-10.11-51.36-12h-.13l-.13.06c-1.63.8-5.27 2.66-5.31 2.68a1.11 1.11 0 0 0-.66 1.1c.106.482.51.841 1 .89l91.52 22.53a2.2 2.2 0 0 0 .44 0 2.05 2.05 0 0 0 .92-.23l7.15-4.77z"/><path fill="#A6A9AC" d="M198.016 126.109c1.284-6.008 4.83-10.558 7.861-9.728 2.911.797 3.766 6.136 2.417 12.417-1.3 6.102-4.576 10.585-7.6 9.903-3.308-.756-4.103-5.926-2.678-12.592m7.597-8.764c-2.264-.62-5.44 3.457-6.62 8.973-1.318 6.167-.6 10.831 1.922 11.407 2.26.51 5.204-3.517 6.401-9.136 1.247-5.804.471-10.648-1.703-11.244" opacity=".2"/><path fill="url(#a)" d="m41.839 25.048-.58-.27a1.32 1.32 0 0 1-.35-2.15l9.85-9.34a1.3 1.3 0 0 1 1.45-.24l.58.27a1.31 1.31 0 0 1 .35 2.14l-9.85 9.32a1.3 1.3 0 0 1-1.45.27" transform="translate(92.446 129.226)"/><path fill="#FFF680" d="m139.105 146.403 4.1-3.89a1.3 1.3 0 0 1 1.45-.23l1.24.57a.82.82 0 0 1 .22 1.34l-4.73 4.4a1.33 1.33 0 0 1-1.57.17l-.47-.28a1.31 1.31 0 0 1-.24-2.08"/><path fill="#3F464C" d="M142.859 142.152a1.8 1.8 0 0 1 2.007-.332l.58.27a1.81 1.81 0 0 1 .483 2.956l-9.84 9.31a1.8 1.8 0 0 1-2.008.374l-.589-.274a1.82 1.82 0 0 1-.481-2.966zm1.584.574a.8.8 0 0 0-.894.15l-9.849 9.339a.82.82 0 0 0 .216 1.335l.574.267.101.037c.243.07.507.02.715-.139l.085-.075 9.85-9.32a.81.81 0 0 0-.217-1.324z"/><path fill="url(#b)" d="m31.839 21.358-.58-.26a1.32 1.32 0 0 1-.35-2.15l9.85-9.34a1.3 1.3 0 0 1 1.45-.24l.58.27a1.31 1.31 0 0 1 .35 2.14l-9.85 9.35a1.3 1.3 0 0 1-1.45.23" transform="translate(92.446 129.226)"/><path fill="#FFF680" d="m129.105 142.713 4.1-3.89a1.3 1.3 0 0 1 1.45-.23l1.24.57a.82.82 0 0 1 .22 1.34l-4.73 4.4a1.33 1.33 0 0 1-1.57.17l-.47-.28a1.31 1.31 0 0 1-.24-2.08"/><path fill="#3F464C" d="M132.859 138.472a1.8 1.8 0 0 1 2.007-.332l.58.27a1.81 1.81 0 0 1 .483 2.956l-9.85 9.35a1.8 1.8 0 0 1-2.008.319l.01.004-.589-.263a1.82 1.82 0 0 1-.481-2.966zm1.584.574a.8.8 0 0 0-.894.15l-9.849 9.339a.82.82 0 0 0 .21 1.332l.58.26.01.004a.8.8 0 0 0 .89-.14l9.851-9.35a.81.81 0 0 0-.217-1.325z"/><path fill="url(#c)" d="m21.839 18.488-.58-.27a1.31 1.31 0 0 1-.35-2.14l9.85-9.3a1.32 1.32 0 0 1 1.45-.24l.58.27a1.31 1.31 0 0 1 .35 2.14l-9.85 9.35a1.3 1.3 0 0 1-1.45.19" transform="translate(92.446 129.226)"/><path fill="#FFF680" d="m119.105 139.833 4.1-3.83a1.32 1.32 0 0 1 1.45-.24l1.24.58a.82.82 0 0 1 .22 1.34l-4.73 4.32a1.31 1.31 0 0 1-1.57.16l-.47-.27a1.32 1.32 0 0 1-.24-2.06"/><path fill="#3F464C" d="M122.863 135.639a1.82 1.82 0 0 1 2.003-.33l.58.27a1.81 1.81 0 0 1 .483 2.957l-9.861 9.36a1.8 1.8 0 0 1-2.008.264l.014.006-.58-.27a1.81 1.81 0 0 1-.482-2.956zm1.585.58a.82.82 0 0 0-.9.148l-9.85 9.3a.81.81 0 0 0 .218 1.323l.58.27.014.007a.8.8 0 0 0 .88-.106l9.851-9.35a.81.81 0 0 0-.217-1.325z"/><path fill="url(#d)" d="m11.839 15.558-.58-.27a1.31 1.31 0 0 1-.35-2.14l9.85-9.37a1.32 1.32 0 0 1 1.45-.24l.58.27a1.31 1.31 0 0 1 .35 2.14l-9.84 9.35a1.33 1.33 0 0 1-1.46.26" transform="translate(92.446 129.226)"/><path fill="#FFF680" d="m109.105 136.903 4.1-3.9a1.32 1.32 0 0 1 1.45-.24l1.24.57a.82.82 0 0 1 .22 1.34l-4.73 4.43a1.33 1.33 0 0 1-1.57.16l-.47-.26a1.31 1.31 0 0 1-.24-2.1"/><path fill="#3F464C" d="M112.863 132.639a1.82 1.82 0 0 1 2.003-.33l.58.27a1.81 1.81 0 0 1 .483 2.957l-9.837 9.347a1.83 1.83 0 0 1-2.009.358l-.588-.274a1.81 1.81 0 0 1-.485-2.956zm1.585.58a.82.82 0 0 0-.898.146l-9.851 9.371a.81.81 0 0 0 .217 1.324l.57.266a.83.83 0 0 0 .915-.165l9.84-9.35a.81.81 0 0 0-.217-1.325z"/><path fill="url(#e)" d="m1.839 12.618-.58-.26a1.32 1.32 0 0 1-.35-2.15l9.85-9.34a1.28 1.28 0 0 1 1.45-.24l.58.26a1.32 1.32 0 0 1 .35 2.15l-9.84 9.34a1.3 1.3 0 0 1-1.46.24" transform="translate(92.446 129.226)"/><path fill="#FFF680" d="m99.105 134.003 4.1-3.88a1.3 1.3 0 0 1 1.45-.23l1.24.57a.82.82 0 0 1 .22 1.34l-4.73 4.4a1.33 1.33 0 0 1-1.57.17l-.47-.28a1.32 1.32 0 0 1-.24-2.09"/><path fill="#3F464C" d="M102.855 129.736a1.775 1.775 0 0 1 2.004-.34l.588.265a1.82 1.82 0 0 1 .482 2.965l-9.837 9.337a1.8 1.8 0 0 1-2.021.332l.01.004-.589-.263a1.82 1.82 0 0 1-.481-2.966zm1.584.568a.78.78 0 0 0-.89.152l-9.849 9.339a.82.82 0 0 0 .21 1.332l.58.26.009.004a.8.8 0 0 0 .902-.15l9.839-9.34a.82.82 0 0 0-.21-1.332z"/></g></svg>