<?xml version="1.0" encoding="UTF-8" standalone="no"?>
<!-- Created with Inkscape (http://www.inkscape.org/) -->

<svg
   width="512"
   height="512"
   viewBox="0 0 512 512"
   version="1.1"
   id="svg1"
   xml:space="preserve"
   xmlns="http://www.w3.org/2000/svg"
   xmlns:svg="http://www.w3.org/2000/svg"><defs
     id="defs1" /><g
     id="layer1"><path
       d="M 59.264618,296.46942 221.73428,157.47199 c 21.06088,-17.73218 34.09857,-42.61444 34.09857,-69.784713 0,-26.884276 -12.70339,-51.480526 -33.09567,-69.212707 L 60.267519,157.47199 c -21.060884,17.73219 -34.098572,42.61443 -34.098572,69.78472 0,27.17027 12.703389,51.48052 33.095671,69.21271 z M 452.73538,215.24458 290.26572,354.242 c -21.06088,17.7322 -34.09857,42.61443 -34.09857,69.78472 0,26.88429 12.70339,51.48054 33.09567,69.21271 L 451.73247,354.242 c 21.06089,-17.73218 34.09858,-42.61444 34.09858,-69.78471 0,-27.17028 -12.70339,-51.48053 -33.09567,-69.21271 z M 451.73247,157.758 c 21.06089,-17.73219 34.09858,-42.61444 34.09858,-69.784719 0,-26.884277 -12.70339,-51.480532 -33.09567,-69.212713 L 60.267519,354.242 c -21.060884,18.0182 -34.098572,42.61443 -34.098572,70.07073 0,26.88427 12.703389,51.48052 33.095671,69.2127 z"
       fill="#1292ee"
       id="path1"
       style="display:inline;stroke-width:1.6608" /></g></svg>
