<?xml version="1.0" encoding="UTF-8"?>
<svg id="a" data-name="Ebene 1" xmlns="http://www.w3.org/2000/svg" viewBox="80 60 430 410">
  <defs>
    <style>
      .b {
        fill: #346180;
      }

      .c {
        fill: #009aa5;
      }
    </style>
  </defs>
  <g>
    <path class="c" d="M319.57,303.39c41.78,18.41,74.43,42.48,87.64,89.83,4.52,16.2,12.63,44.75-10.72,48.82H101.39c-2.63-.09-9.25-2.82-11.12-4.38-.3-.25-4.06-6.12-4.22-6.49-5.78-13.4,2.35-35.12,7.31-47.71,9.49-24.09,25.75-44.44,46.62-59.63,16.07-11.7,34.34-20.54,53.51-25.78,32.68-8.93,94.96-8.37,126.07,5.34Z"/>
    <path class="c" d="M299.53,126.4c7.22,5.55,16.92,15.59,20.81,23.69,14.47,30.14,13.54,62.8-6.99,90.82-32.64,44.55-106.51,39.41-133.59-8.24-45.73-80.48,49.74-160.1,119.77-106.26Z"/>
  </g>
  <g>
    <path class="b" d="M395.52,128.43c50.29,40.71,28.84,125.79-34.37,141.27-7.94,1.94-34,4.45-40.2-.24-.7-.53-1.73-1.28-1.25-2.3.2-.42.58-.72.95-1.01,6.58-5.05,11.45-13.02,15.71-20.08s7.99-14.88,10.77-22.84c5.4-15.47,7.48-32.13,5.27-48.4-2.36-17.34-9.63-33.63-20.49-47.31-2.75-3.46-6.2-6.45-9.27-9.63-1.09-1.14-3.73-3.05-4.21-4.6-.9-2.93,2.98-3.72,5.51-4.06,23.02-3.1,46.39,1.77,65.63,14.81,2.04,1.38,4.02,2.84,5.94,4.39Z"/>
    <path class="b" d="M433.88,441.36c-2.64-2.97.77-10.22,1.03-13.89,3.54-49.03-30.24-100.05-69.07-126.89-1.99-1.38-11.43-6.12-11.91-6.6-1.42-1.44.09-1.81,1.48-1.99,7.36-.93,17.29,1.08,24.7,2.32,16.51,2.77,33.53,8.05,48.48,15.52,18.53,9.24,34.94,22.72,47.79,38.94,11.65,14.7,54.83,91.93,8.76,92.91-15.76.33-31.52.67-47.28,1-1.97.04-3.23-.46-3.99-1.31Z"/>
  </g>
</svg>