<svg width="163" height="36" viewBox="0 0 163 36" fill="none" xmlns="http://www.w3.org/2000/svg">
<path d="M70.3407 34.811V0.669434H81.5344C82.9027 0.669434 84.1179 0.712096 85.18 0.797424C86.1319 0.866396 87.0765 1.01229 88.0047 1.23368C88.7677 1.41727 89.5081 1.68387 90.2127 2.02868C90.8719 2.35921 91.4919 2.76254 92.0608 3.23108C93.3581 4.28573 94.38 5.63782 95.0392 7.17181C95.7329 8.78924 96.0826 10.5325 96.0663 12.2915C96.0735 13.9945 95.7416 15.682 95.0898 17.2562C94.5063 18.7221 93.6132 20.0458 92.4713 21.1374C91.3251 22.2198 89.9336 23.0101 88.4152 23.4413C86.8744 23.8847 84.8889 24.1065 82.4585 24.1065H78.7097V34.8037L70.3407 34.811ZM78.7097 16.4359H82.2523C85.8811 16.4359 87.6954 15.0965 87.6954 12.4177C87.6954 10.9755 87.2421 9.93656 86.3356 9.30081C85.429 8.66505 83.9485 8.34717 81.8943 8.34717H78.7097V16.4359Z" fill="#231F20"/>
<path d="M96.0934 34.8109V0.669434H107.595C108.897 0.669434 110.052 0.712096 111.061 0.797424C111.993 0.871903 112.92 1.00862 113.833 1.20664C114.644 1.38575 115.435 1.64294 116.195 1.97459C116.948 2.30791 117.678 2.69281 118.378 3.12652C120.017 4.14616 121.432 5.48677 122.537 7.06725C124.625 9.96961 125.669 13.4849 125.669 17.6131C125.669 20.2066 125.284 22.5609 124.514 24.6761C123.809 26.686 122.701 28.5321 121.258 30.1023C119.835 31.6139 118.098 32.7992 116.17 33.5761C114.065 34.4198 111.813 34.8395 109.544 34.8109H96.0934ZM104.822 27.1332H108.571C111.309 27.1332 113.389 26.34 114.81 24.7536C116.231 23.1672 116.941 20.8724 116.94 17.8691C116.94 14.7973 116.221 12.4423 114.783 10.8043C113.345 9.1662 111.291 8.34717 108.622 8.34717H104.824L104.822 27.1332Z" fill="#231F20"/>
<path d="M161.782 28.5665C161.885 28.5671 161.988 28.5587 162.089 28.5413C162.225 28.5225 162.363 28.5141 162.5 28.516V35.4258L161.294 35.5033C161.037 35.5196 160.721 35.5286 160.344 35.5286C158.741 35.5493 157.145 35.3056 155.621 34.8075C154.216 34.3268 153.121 33.6616 152.333 32.8119C149.389 34.5882 146.292 35.4751 143.04 35.4727C140.553 35.495 138.085 35.0346 135.774 34.1171C133.605 33.2606 131.619 32.0016 129.921 30.4071C128.227 28.7963 126.882 26.8573 125.968 24.7092C125.054 22.5612 124.59 20.2494 124.606 17.9161C124.583 15.5572 125.033 13.2175 125.928 11.0338C126.823 8.85012 128.146 6.86624 129.819 5.19817C131.493 3.5301 133.483 2.21131 135.673 1.31891C137.864 0.426512 140.211 -0.0215909 142.577 0.000799512C145.05 -0.0180649 147.503 0.451881 149.793 1.38348C151.968 2.26175 153.955 3.54674 155.646 5.16916C157.315 6.78799 158.642 8.72372 159.549 10.8621C160.5 13.0952 160.98 15.4992 160.961 17.9251C160.975 19.5731 160.741 21.2138 160.267 22.7924C159.748 24.411 158.996 25.9456 158.033 27.3479C158.923 28.1603 160.173 28.5665 161.782 28.5665ZM146.326 18.0225C146.84 18.3974 147.284 18.7303 147.661 19.0212C148.037 19.312 148.405 19.6191 148.765 19.9424C149.142 20.2837 149.494 20.6512 149.818 21.042C150.16 21.4512 150.57 21.9307 151.049 22.4752C151.414 21.5906 151.723 20.6845 151.975 19.7621C152.156 18.9905 152.242 18.2 152.232 17.4078C152.243 16.0768 151.998 14.7561 151.509 13.5175C151.055 12.3635 150.375 11.3113 149.509 10.4223C148.641 9.54455 147.601 8.85582 146.453 8.39962C145.219 7.91056 143.903 7.66564 142.575 7.67853C140.18 7.67853 138.161 8.44649 136.517 9.9824C134.874 11.5183 133.83 13.6173 133.385 16.2793C134.212 15.9022 135.071 15.6005 135.951 15.3779C136.711 15.2168 137.486 15.1394 138.263 15.1472C140.9 15.1532 143.588 16.1116 146.326 18.0225ZM142.474 27.8076C143.084 27.8244 143.691 27.7378 144.272 27.5516C144.927 27.2866 145.549 26.9434 146.122 26.5295C145.419 25.6017 144.628 24.7443 143.758 23.9696C142.984 23.3206 142.119 22.7863 141.192 22.3832C139.992 21.8025 138.674 21.5046 137.34 21.5125C136.832 21.5063 136.325 21.5492 135.825 21.6405C135.295 21.7541 134.772 21.8992 134.259 22.075C134.935 23.7627 136.097 25.2138 137.597 26.2464C139.02 27.2611 140.725 27.8069 142.474 27.8076Z" fill="#231F20"/>
<path d="M70.3352 0.669434H52.3041V34.811H70.3352V0.669434Z" fill="#0099CC"/>
<path d="M52.2788 0.669434H44.3401V34.811H52.2788V0.669434Z" fill="#A2FFD4"/>
<path d="M44.3292 0.669434H26.3234V34.811H44.3292V0.669434Z" fill="#99CC33"/>
<path d="M26.2998 0.669434H18.3521V34.811H26.2998V0.669434Z" fill="#FFFF33"/>
<path d="M18.334 0.669434H0.5V34.811H18.334V0.669434Z" fill="#FF9933"/>
</svg>
