<?xml version="1.0" encoding="UTF-8"?>
<svg version="1.1" xmlns="http://www.w3.org/2000/svg" width="176" height="73">
<path d="M0 0 C58.08 0 116.16 0 176 0 C176 24.09 176 48.18 176 73 C117.92 73 59.84 73 0 73 C0 48.91 0 24.82 0 0 Z " fill="#292828" transform="translate(0,0)"/>
<path d="M0 0 C1.65 0 3.3 0 5 0 C5.97157545 2.91472635 6.28253958 5.27597757 6.53515625 8.32421875 C6.61386963 9.25065186 6.69258301 10.17708496 6.77368164 11.1315918 C6.8689917 12.3050415 6.96430176 13.47849121 7.0625 14.6875 C7.371875 18.420625 7.68125 22.15375 8 26 C8.99 17.42 9.98 8.84 11 0 C12.98 0 14.96 0 17 0 C17.90204024 2.70612071 18.266216 4.8530608 18.53515625 7.66796875 C18.62216797 8.56064453 18.70917969 9.45332031 18.79882812 10.37304688 C18.88583984 11.30181641 18.97285156 12.23058594 19.0625 13.1875 C19.15337891 14.12787109 19.24425781 15.06824219 19.33789062 16.03710938 C19.56171283 18.3577922 19.78229246 20.67873689 20 23 C21.64292546 21.35707454 21.34107718 19.35409962 21.53515625 17.08984375 C21.62216797 16.10048828 21.70917969 15.11113281 21.79882812 14.09179688 C21.88583984 13.05087891 21.97285156 12.00996094 22.0625 10.9375 C22.15337891 9.89271484 22.24425781 8.84792969 22.33789062 7.77148438 C22.56260908 5.1813085 22.7831231 2.59084233 23 0 C24.65 0 26.3 0 28 0 C28.68569242 12.77419579 26.66574148 25.36665038 25 38 C22.36 38 19.72 38 17 38 C16.94465088 37.34926514 16.88930176 36.69853027 16.83227539 36.02807617 C16.57946307 33.08087901 16.32104674 30.1341994 16.0625 27.1875 C15.97548828 26.16333984 15.88847656 25.13917969 15.79882812 24.08398438 C15.71181641 23.10107422 15.62480469 22.11816406 15.53515625 21.10546875 C15.41732788 19.74651489 15.41732788 19.74651489 15.29711914 18.36010742 C15.05953902 15.85319251 15.05953902 15.85319251 14 13 C13.01 21.25 12.02 29.5 11 38 C8.36 38 5.72 38 3 38 C2.56751784 33.87454958 2.14048697 29.7485801 1.71826172 25.62207031 C1.57421156 24.221529 1.42873339 22.82113373 1.28173828 21.42089844 C-0.21963851 7.101645 -0.21963851 7.101645 0 0 Z " fill="#E49A0B" transform="translate(14,19)"/>
<path d="M0 0 C2.97 0 5.94 0 9 0 C9.17128418 0.74572266 9.34256836 1.49144531 9.51904297 2.25976562 C10.30357598 5.67335827 11.08927874 9.08668067 11.875 12.5 C12.14441406 13.67304687 12.41382812 14.84609375 12.69140625 16.0546875 C14.3688139 23.34248267 14.3688139 23.34248267 16.1953125 30.59375 C17 34 17 34 17 38 C15.02 38 13.04 38 11 38 C10.34 35.36 9.68 32.72 9 30 C5.7 29.67 2.4 29.34 -1 29 C-1.33 31.97 -1.66 34.94 -2 38 C-4.31 38 -6.62 38 -9 38 C-8.34485797 29.93031407 -6.06612985 22.27666743 -3.9375 14.5 C-3.55614707 13.09127935 -3.17528343 11.68242615 -2.79492188 10.2734375 C-1.86892205 6.84741051 -0.93629766 3.42322897 0 0 Z " fill="#F87B52" transform="translate(54,19)"/>
<path d="M0 0 C7.59 0 15.18 0 23 0 C23 1.98 23 3.96 23 6 C17.72 6 12.44 6 7 6 C7 8.97 7 11.94 7 15 C11.62 15 16.24 15 21 15 C21 16.98 21 18.96 21 21 C16.38 21 11.76 21 7 21 C7 24.63 7 28.26 7 32 C12.28 32 17.56 32 23 32 C23 33.98 23 35.96 23 38 C15.41 38 7.82 38 0 38 C0 25.46 0 12.92 0 0 Z " fill="#E36CC5" transform="translate(107,19)"/>
<path d="M0 0 C1.8203125 1.16015625 1.8203125 1.16015625 3.8203125 4.16015625 C3.9453125 6.84765625 3.9453125 6.84765625 3.8203125 9.16015625 C1.8403125 9.16015625 -0.1396875 9.16015625 -2.1796875 9.16015625 C-2.5096875 8.17015625 -2.8396875 7.18015625 -3.1796875 6.16015625 C-5.5057732 5.77952404 -7.84024014 5.4474568 -10.1796875 5.16015625 C-11.44972073 6.21325902 -11.44972073 6.21325902 -11.3671875 8.59765625 C-11.44808733 11.327503 -11.44808733 11.327503 -9.1796875 13.16015625 C-7.56841552 13.64578352 -5.94039771 14.07707648 -4.3046875 14.47265625 C-1.06971381 15.42631901 0.75960784 16.11245973 3.4453125 18.22265625 C5.46906595 22.54612953 5.60558697 26.47160575 4.8203125 31.16015625 C3.02384396 34.0943882 1.8762054 35.6322098 -1.1796875 37.16015625 C-11.5684343 38.23432505 -11.5684343 38.23432505 -16.3671875 35.03515625 C-18.30672557 31.95864758 -18.92808432 29.76646854 -19.1796875 26.16015625 C-16.3671875 25.84765625 -16.3671875 25.84765625 -13.1796875 26.16015625 C-11.6796875 28.66015625 -11.6796875 28.66015625 -10.1796875 31.16015625 C-7.13715242 31.74361101 -7.13715242 31.74361101 -4.1796875 31.16015625 C-1.76846891 29.2038165 -1.76846891 29.2038165 -2.0546875 25.53515625 C-2.0959375 24.42140625 -2.1371875 23.30765625 -2.1796875 22.16015625 C-2.77136719 22.05058594 -3.36304688 21.94101562 -3.97265625 21.828125 C-8.53258921 20.91316292 -12.44787931 20.10036876 -16.1796875 17.16015625 C-18.70383404 12.96522232 -19.11493523 8.9384219 -18.1796875 4.16015625 C-13.60178395 -1.74292991 -6.95683603 -2.68050134 0 0 Z " fill="#A287F3" transform="translate(155.1796875,19.83984375)"/>
<path d="M0 0 C2.31 0 4.62 0 7 0 C8.98 8.58 10.96 17.16 13 26 C14.96716302 20.09851094 16.51747158 15.05654115 17.625 9.0625 C18.90430622 2.19138756 18.90430622 2.19138756 20 0 C21.98 0 23.96 0 26 0 C25.26854384 7.99450674 23.29725079 15.70972075 21.4375 23.5 C21.10443407 24.90876352 20.7717485 26.31761702 20.43945312 27.7265625 C19.63068782 31.15209093 18.8167711 34.57637046 18 38 C15.03 38 12.06 38 9 38 C7.87200251 33.87589093 6.75128275 29.74989035 5.63696289 25.62207031 C5.25772211 24.22115195 4.87657512 22.82074805 4.4934082 21.42089844 C0.57655108 7.101645 0.57655108 7.101645 0 0 Z " fill="#F3638F" transform="translate(75,19)"/>
<path d="M0 0 C0.33 0 0.66 0 1 0 C1.50546036 2.08201528 2.00416835 4.16567067 2.5 6.25 C2.7784375 7.41015625 3.056875 8.5703125 3.34375 9.765625 C4 13 4 13 4 17 C1.69 17 -0.62 17 -3 17 C-2.22095672 5.47835991 -2.22095672 5.47835991 0 0 Z " fill="#48322C" transform="translate(58,26)"/>
</svg>
