<svg width="512" height="512" viewBox="0 0 512 512" fill="none" xmlns="http://www.w3.org/2000/svg">
<path fill-rule="evenodd" clip-rule="evenodd" d="M495.711 206.231C504.165 159.73 495.711 47.1181 376.203 18.6927C343.15 10.8311 263.648 14.9409 193.187 104.544C174.645 93.6921 153.149 87.5882 130.078 87.5882C82.9357 87.5882 39.7482 113.027 23.1835 155.238C0.894156 212.634 29.4451 282.323 143.584 311.915C130.452 296.907 71.7187 256.959 75.9457 210.458C78.5235 182.103 105.537 163.957 124.94 157.411C156.18 146.87 200.691 150.007 235.509 181.897C260.557 128.249 308.45 104.774 343.526 96.3199C409.907 83.6374 483.029 113.229 495.711 206.231Z" fill="#1570EF"/>
<path opacity="0.3" fill-rule="evenodd" clip-rule="evenodd" d="M75.9406 218.913C63.2587 218.913 18.0123 195.766 27.2775 146.255C-4.37876 206.231 29.44 286.551 143.579 311.915C134.366 299.233 80.1683 261.186 75.9406 218.913Z" fill="#1570EF"/>
<path fill-rule="evenodd" clip-rule="evenodd" d="M267.625 168.309C285.164 155.214 304.097 147.512 322.718 144.511C433.192 132.115 454.8 208.561 442.572 249.831C440.282 257.561 431.317 287.349 410.682 302.357C431.317 296.729 453.828 275.753 461.331 264.838C502.601 204.809 461.793 111.827 368.801 116.7C330.657 118.674 295.036 139.976 267.625 168.309Z" fill="#1570EF"/>
<path opacity="0.5" fill-rule="evenodd" clip-rule="evenodd" d="M368.068 144.786C369.944 133.531 381.81 130.146 387.924 128.233C404.32 124.518 430.458 131.495 444.98 141.035C420.594 120.4 394.969 115.24 368.068 116.648C329.923 118.622 294.789 140.303 267.379 168.637C284.918 155.542 303.85 147.84 322.471 144.839C341.52 142.819 354.936 142.911 368.068 144.786Z" fill="#1570EF"/>
<path d="M125.701 426.829L319.333 205.457H398.16L206.588 426.829H125.701Z" fill="#1570EF"/>
<path d="M272.482 387.335L369.418 497.032H448.245L313.839 339.086L272.482 387.335Z" fill="#1570EF"/>
<path d="M123.673 205.933L205.588 300.378L246.944 252.13L204.559 205.933H123.673Z" fill="#1570EF"/>
</svg>
